<svg xmlns="http://www.w3.org/2000/svg" xmlns:xlink="http://www.w3.org/1999/xlink" width="500" zoomAndPan="magnify" viewBox="0 0 375 374.999991" height="500" preserveAspectRatio="xMidYMid meet" version="1.0"><defs><clipPath id="79f0641b98"><path d="M 18.75 68.953125 L 356.25 68.953125 L 356.25 305.953125 L 18.75 305.953125 Z M 18.75 68.953125 " clip-rule="nonzero"/></clipPath></defs><g clip-path="url(#79f0641b98)"><path fill="#ffffff" d="M 335.023438 111.085938 L 256.785156 111.085938 C 256.785156 111.085938 249.671875 95.8125 244.402344 84.753906 C 239.660156 74.746094 230.703125 68.953125 218.847656 68.953125 L 150.617188 68.953125 C 139.027344 68.953125 130.070312 74.484375 126.382812 84.753906 L 115.316406 111.085938 L 95.296875 111.085938 L 95.296875 108.453125 C 95.296875 102.660156 89.5 97.917969 82.125 97.917969 L 58.414062 97.917969 C 51.039062 97.917969 45.242188 102.660156 45.242188 108.453125 L 45.242188 111.085938 L 39.976562 111.085938 C 28.382812 111.085938 18.898438 120.566406 18.898438 132.152344 L 18.898438 284.886719 C 18.898438 296.472656 28.382812 305.953125 39.976562 305.953125 L 335.023438 305.953125 C 346.617188 305.953125 356.101562 296.472656 356.101562 284.886719 L 356.101562 132.152344 C 356.101562 120.566406 346.617188 111.085938 335.023438 111.085938 Z M 50.511719 108.453125 C 50.511719 105.554688 54.199219 103.1875 58.414062 103.1875 L 82.125 103.1875 C 86.339844 103.1875 90.027344 105.554688 90.027344 108.453125 L 90.027344 111.085938 L 50.511719 111.085938 Z M 335.023438 295.417969 L 39.976562 295.417969 C 34.179688 295.417969 29.4375 290.679688 29.4375 284.886719 L 29.4375 163.753906 L 111.101562 163.753906 C 112.683594 163.753906 113.738281 162.699219 113.738281 161.121094 C 113.738281 159.539062 112.683594 158.488281 111.101562 158.488281 L 29.4375 158.488281 L 29.4375 132.152344 C 29.4375 126.359375 34.179688 121.621094 39.976562 121.621094 L 122.167969 121.621094 L 136.128906 88.964844 L 136.128906 88.441406 C 138.238281 82.644531 142.980469 79.75 150.617188 79.75 L 219.113281 79.75 C 226.488281 79.75 232.019531 83.171875 234.917969 89.492188 C 240.1875 100.289062 250.199219 121.621094 250.199219 121.621094 L 335.023438 121.621094 C 340.820312 121.621094 345.5625 126.359375 345.5625 132.152344 L 345.5625 158.488281 L 263.898438 158.488281 C 262.316406 158.488281 261.261719 159.539062 261.261719 161.121094 C 261.261719 162.699219 262.316406 163.753906 263.898438 163.753906 L 345.5625 163.753906 L 345.5625 284.886719 C 345.5625 290.679688 340.820312 295.417969 335.023438 295.417969 Z M 335.023438 295.417969 " fill-opacity="1" fill-rule="nonzero"/></g><path fill="#ffffff" d="M 187.5 137.417969 C 148.246094 137.417969 116.371094 169.28125 116.371094 208.519531 C 116.371094 247.757812 148.246094 279.621094 187.5 279.621094 C 226.753906 279.621094 258.628906 247.757812 258.628906 208.519531 C 258.628906 169.28125 226.753906 137.417969 187.5 137.417969 Z M 187.5 269.085938 C 154.042969 269.085938 126.910156 241.964844 126.910156 208.519531 C 126.910156 175.078125 154.042969 147.953125 187.5 147.953125 C 220.957031 147.953125 248.089844 175.078125 248.089844 208.519531 C 248.089844 241.964844 220.957031 269.085938 187.5 269.085938 Z M 187.5 269.085938 " fill-opacity="1" fill-rule="nonzero"/><path fill="#ffffff" d="M 187.5 166.386719 C 164.316406 166.386719 145.351562 185.347656 145.351562 208.519531 C 145.351562 210.101562 146.402344 211.152344 147.984375 211.152344 C 149.566406 211.152344 150.617188 210.101562 150.617188 208.519531 C 150.617188 188.242188 167.214844 171.652344 187.5 171.652344 C 189.082031 171.652344 190.132812 170.601562 190.132812 169.019531 C 190.132812 167.441406 189.082031 166.386719 187.5 166.386719 Z M 187.5 166.386719 " fill-opacity="1" fill-rule="nonzero"/><path fill="#ffffff" d="M 150.617188 219.054688 C 150.617188 219.402344 150.550781 219.738281 150.417969 220.0625 C 150.285156 220.382812 150.09375 220.667969 149.847656 220.914062 C 149.601562 221.160156 149.316406 221.351562 148.992188 221.484375 C 148.667969 221.621094 148.332031 221.6875 147.984375 221.6875 C 147.636719 221.6875 147.300781 221.621094 146.976562 221.484375 C 146.652344 221.351562 146.367188 221.160156 146.121094 220.914062 C 145.875 220.667969 145.683594 220.382812 145.550781 220.0625 C 145.417969 219.738281 145.351562 219.402344 145.351562 219.054688 C 145.351562 218.703125 145.417969 218.367188 145.550781 218.046875 C 145.683594 217.722656 145.875 217.4375 146.121094 217.191406 C 146.367188 216.945312 146.652344 216.753906 146.976562 216.621094 C 147.300781 216.488281 147.636719 216.417969 147.984375 216.417969 C 148.332031 216.417969 148.667969 216.488281 148.992188 216.621094 C 149.316406 216.753906 149.601562 216.945312 149.847656 217.191406 C 150.09375 217.4375 150.285156 217.722656 150.417969 218.046875 C 150.550781 218.367188 150.617188 218.703125 150.617188 219.054688 Z M 150.617188 219.054688 " fill-opacity="1" fill-rule="nonzero"/><path fill="#ffffff" d="M 324.488281 139.789062 C 324.488281 140.136719 324.453125 140.476562 324.386719 140.816406 C 324.320312 141.15625 324.21875 141.484375 324.085938 141.804688 C 323.953125 142.125 323.792969 142.429688 323.597656 142.714844 C 323.40625 143.003906 323.1875 143.269531 322.945312 143.515625 C 322.699219 143.757812 322.433594 143.976562 322.144531 144.167969 C 321.859375 144.359375 321.554688 144.523438 321.234375 144.65625 C 320.914062 144.789062 320.585938 144.886719 320.246094 144.957031 C 319.90625 145.023438 319.566406 145.054688 319.21875 145.054688 C 318.871094 145.054688 318.53125 145.023438 318.191406 144.957031 C 317.851562 144.886719 317.523438 144.789062 317.203125 144.65625 C 316.882812 144.523438 316.578125 144.359375 316.292969 144.167969 C 316.003906 143.976562 315.738281 143.757812 315.492188 143.515625 C 315.25 143.269531 315.03125 143.003906 314.835938 142.714844 C 314.644531 142.429688 314.484375 142.125 314.351562 141.804688 C 314.21875 141.484375 314.117188 141.15625 314.050781 140.816406 C 313.984375 140.476562 313.949219 140.136719 313.949219 139.789062 C 313.949219 139.445312 313.984375 139.101562 314.050781 138.761719 C 314.117188 138.421875 314.21875 138.09375 314.351562 137.773438 C 314.484375 137.453125 314.644531 137.152344 314.835938 136.863281 C 315.03125 136.578125 315.25 136.308594 315.492188 136.066406 C 315.738281 135.820312 316.003906 135.601562 316.292969 135.410156 C 316.578125 135.21875 316.882812 135.054688 317.203125 134.925781 C 317.523438 134.792969 317.851562 134.691406 318.191406 134.625 C 318.53125 134.558594 318.871094 134.523438 319.21875 134.523438 C 319.566406 134.523438 319.90625 134.558594 320.246094 134.625 C 320.585938 134.691406 320.914062 134.792969 321.234375 134.925781 C 321.554688 135.054688 321.859375 135.21875 322.144531 135.410156 C 322.433594 135.601562 322.699219 135.820312 322.945312 136.066406 C 323.1875 136.308594 323.40625 136.578125 323.597656 136.863281 C 323.792969 137.152344 323.953125 137.453125 324.085938 137.773438 C 324.21875 138.09375 324.320312 138.421875 324.386719 138.761719 C 324.453125 139.101562 324.488281 139.445312 324.488281 139.789062 Z M 324.488281 139.789062 " fill-opacity="1" fill-rule="nonzero"/></svg>