<svg xmlns="http://www.w3.org/2000/svg" xmlns:xlink="http://www.w3.org/1999/xlink" width="500" zoomAndPan="magnify" viewBox="0 0 375 374.999991" height="500" preserveAspectRatio="xMidYMid meet" version="1.0"><defs><clipPath id="c66863c5a8"><path d="M 7.332031 54.402344 L 367.332031 54.402344 L 367.332031 319 L 7.332031 319 Z M 7.332031 54.402344 " clip-rule="nonzero"/></clipPath></defs><g clip-path="url(#c66863c5a8)"><path fill="#ffffff" d="M 186.894531 55.8125 C 188.828125 55.378906 190.761719 54.722656 192.777344 54.667969 C 197.214844 54.503906 201.707031 56.46875 204.566406 59.875 C 205.628906 61.15625 206.363281 62.683594 207.179688 64.15625 C 220.25 63.28125 233.347656 62.464844 246.414062 61.648438 C 250.308594 61.210938 254.3125 62.410156 257.304688 64.917969 C 260.382812 67.398438 262.152344 71.132812 262.640625 75.003906 C 276.554688 76.804688 290.496094 78.4375 304.410156 80.183594 C 307.160156 80.566406 309.800781 81.765625 311.898438 83.617188 C 315.273438 86.589844 317.234375 91.140625 316.90625 95.664062 C 329.484375 100.054688 342.066406 104.359375 354.644531 108.695312 C 356.660156 109.402344 358.753906 109.949219 360.523438 111.203125 C 364.746094 113.957031 367.332031 119 367.113281 124.042969 C 366.949219 125.8125 366.570312 127.585938 365.941406 129.246094 C 345.277344 189.269531 324.613281 249.292969 303.945312 309.316406 C 301.46875 316.320312 292.972656 320.546875 285.921875 318.09375 C 258.832031 308.769531 231.792969 299.367188 204.730469 290.070312 C 203.667969 289.742188 202.550781 289.6875 201.460938 289.5 C 195.308594 288.652344 189.128906 288.027344 182.976562 287.179688 C 180.933594 286.882812 178.863281 286.609375 176.820312 286.828125 C 174.179688 287.101562 171.511719 286.964844 168.925781 287.507812 C 162.800781 289.007812 156.671875 290.589844 150.519531 292.113281 C 148.289062 292.578125 146.21875 293.53125 144.175781 294.488281 C 131.160156 300.320312 118.148438 306.125 105.132812 311.933594 C 99.496094 314.304688 92.582031 312.476562 88.660156 307.84375 C 87.027344 306.042969 86.210938 303.699219 85.203125 301.519531 C 59.988281 245.039062 34.832031 188.5625 9.589844 132.082031 C 8.503906 129.792969 7.496094 127.421875 7.332031 124.859375 L 7.332031 122.625 C 7.792969 117.609375 10.925781 112.8125 15.554688 110.683594 C 28.949219 104.632812 42.375 98.691406 55.769531 92.667969 C 56.476562 92.3125 57.320312 92.121094 57.839844 91.46875 C 59.636719 89.394531 61.8125 87.570312 64.425781 86.644531 C 69.082031 85.089844 74.09375 84.625 78.558594 82.472656 C 96.5 74.457031 114.445312 66.417969 132.386719 58.402344 C 139.058594 55.105469 147.90625 58.078125 151.363281 64.644531 C 163.234375 61.867188 175.050781 58.757812 186.894531 55.8125 Z M 187.46875 58.757812 C 175.789062 61.648438 164.132812 64.644531 152.453125 67.507812 C 152.234375 67.5625 152.019531 67.671875 151.828125 67.808594 C 156.972656 67.179688 162.144531 67.097656 167.292969 66.636719 C 168.082031 66.609375 168.707031 66.117188 169.414062 65.789062 C 171.894531 64.507812 174.78125 64.238281 177.53125 64.507812 C 180.90625 64.78125 184.226562 65.761719 187.605469 65.382812 C 193.050781 65 198.496094 64.699219 203.941406 64.347656 C 202.089844 60.53125 198.085938 57.832031 193.839844 57.640625 C 191.660156 57.476562 189.5625 58.292969 187.46875 58.757812 Z M 135.816406 60.367188 C 134.675781 60.613281 133.640625 61.15625 132.578125 61.621094 C 119.234375 67.617188 105.839844 73.476562 92.554688 79.582031 C 97.890625 78.109375 103.28125 76.859375 108.644531 75.46875 C 109 75.414062 109.160156 75.085938 109.378906 74.867188 C 111.777344 72.003906 115.316406 70.125 119.046875 69.742188 C 124.574219 69.335938 130.125 69.117188 135.652344 68.625 C 139.929688 67.753906 144.09375 66.445312 148.34375 65.546875 C 145.890625 61.320312 140.5 59.25 135.816406 60.367188 Z M 242.304688 64.863281 C 228.554688 65.734375 214.832031 66.636719 201.082031 67.480469 C 208.324219 68.242188 215.539062 69.28125 222.78125 70.097656 C 223.597656 69.660156 224.332031 69.089844 225.203125 68.707031 C 228.691406 66.933594 232.855469 66.609375 236.53125 67.945312 C 241.621094 69.6875 246.714844 71.460938 251.804688 73.203125 C 254.203125 74.242188 256.871094 74.242188 259.402344 74.648438 C 259.046875 69.960938 255.265625 65.925781 250.769531 64.835938 C 247.992188 64.101562 245.136719 64.835938 242.304688 64.863281 Z M 164.078125 77.046875 C 156.292969 140.070312 148.558594 203.089844 140.800781 266.109375 C 140.609375 267.445312 140.445312 268.808594 140.636719 270.144531 C 141.234375 275.105469 145.265625 279.441406 150.222656 280.175781 C 159.941406 281.484375 169.6875 282.546875 179.410156 283.855469 C 180.851562 284.074219 182.265625 284.429688 183.738281 284.429688 C 186.050781 284.402344 188.285156 285.054688 190.597656 285.109375 C 182.078125 282.382812 173.691406 279.304688 165.222656 276.46875 C 161.601562 275.296875 158.417969 272.734375 156.621094 269.355469 C 154.769531 265.867188 154.386719 261.640625 155.640625 257.878906 C 176.03125 198.703125 196.398438 139.523438 216.792969 80.347656 C 217.636719 77.730469 218.507812 75.058594 220.167969 72.824219 C 205.601562 70.96875 191.007812 69.199219 176.414062 67.398438 C 170.695312 66.882812 164.894531 71.296875 164.078125 77.046875 Z M 118.992188 72.742188 C 113.328125 73.394531 108.644531 78.847656 108.890625 84.542969 C 112.917969 148.328125 117.003906 212.113281 121.03125 275.898438 C 121.332031 280.53125 124.707031 284.78125 129.175781 286.117188 C 132.03125 287.046875 135.082031 286.445312 138.023438 286.335938 C 146.382812 285.792969 154.769531 285.273438 163.125 284.753906 C 159.042969 284.15625 154.902344 283.800781 150.820312 283.257812 C 147.117188 282.847656 143.523438 281.101562 141.125 278.214844 C 138.539062 275.214844 137.261719 271.125 137.667969 267.175781 C 145.429688 204.207031 153.160156 141.214844 160.949219 78.21875 C 161.167969 75.167969 162.28125 72.167969 164.214844 69.769531 C 149.160156 70.859375 134.074219 71.707031 118.992188 72.742188 Z M 229.671875 70.316406 C 226.183594 70.941406 223.082031 73.257812 221.449219 76.394531 C 220.902344 77.402344 220.601562 78.519531 220.222656 79.582031 C 199.855469 138.734375 179.460938 197.910156 159.097656 257.0625 C 158.007812 259.734375 157.519531 262.757812 158.335938 265.566406 C 159.289062 269.246094 162.253906 272.242188 165.820312 273.496094 C 204.621094 286.855469 243.394531 300.292969 282.164062 313.648438 C 284.207031 314.304688 286.195312 315.148438 288.289062 315.585938 C 293.628906 316.648438 299.371094 313.238281 301.167969 308.144531 C 321.972656 247.738281 342.773438 187.363281 363.574219 126.957031 C 365.234375 122.105469 363.03125 116.328125 358.726562 113.601562 C 357.367188 112.703125 355.761719 112.320312 354.234375 111.746094 C 314.566406 98.011719 274.894531 84.351562 235.222656 70.640625 C 233.453125 70.042969 231.496094 70.015625 229.671875 70.316406 Z M 267.597656 78.65625 C 279.984375 82.964844 292.375 87.242188 304.761719 91.496094 C 307.867188 92.613281 310.972656 93.757812 314.15625 94.628906 C 313.910156 93.921875 313.828125 93.210938 313.722656 92.476562 C 313.148438 89.042969 310.863281 86.015625 307.8125 84.40625 C 305.171875 82.992188 302.121094 82.9375 299.207031 82.554688 C 288.671875 81.273438 278.136719 79.910156 267.597656 78.65625 Z M 104.015625 79.71875 C 92.007812 82.691406 80.027344 85.742188 68.046875 88.769531 C 64.265625 89.367188 60.804688 91.792969 59.0625 95.203125 C 57.757812 97.683594 57.539062 100.625 58.21875 103.324219 C 73.492188 164.21875 88.742188 225.113281 103.988281 285.980469 C 104.425781 288 104.941406 290.070312 106.03125 291.871094 C 107.992188 295.140625 111.640625 297.265625 115.425781 297.402344 C 117.710938 297.566406 119.890625 296.722656 122.09375 296.230469 C 132.414062 293.667969 142.734375 290.996094 153.050781 288.460938 C 153.1875 288.40625 153.433594 288.300781 153.570312 288.246094 C 147.117188 288.84375 140.664062 289.144531 134.210938 289.582031 C 131.433594 289.851562 128.601562 289.335938 126.097656 288.082031 C 122.667969 286.363281 119.945312 283.230469 118.800781 279.578125 C 117.847656 276.441406 117.957031 273.144531 117.738281 269.898438 C 113.898438 209.605469 110.058594 149.28125 106.222656 88.988281 C 106.003906 85.714844 105.566406 82.253906 106.929688 79.121094 C 105.921875 79.09375 104.96875 79.472656 104.015625 79.71875 Z M 48.226562 99.316406 C 37.800781 103.980469 27.398438 108.640625 16.96875 113.300781 C 12.613281 115.265625 9.863281 120.144531 10.300781 124.886719 C 10.542969 127.203125 11.550781 129.328125 12.53125 131.429688 C 37.664062 187.769531 62.792969 244.085938 87.925781 300.429688 C 88.878906 302.636719 89.75 304.953125 91.546875 306.644531 C 94.675781 309.777344 99.714844 310.949219 103.851562 309.261719 C 113 305.253906 122.066406 301.082031 131.214844 297.074219 C 126.996094 297.894531 122.910156 299.230469 118.71875 300.101562 C 115.261719 300.835938 111.558594 300.128906 108.507812 298.355469 C 105.242188 296.449219 102.761719 293.207031 101.808594 289.527344 C 86.289062 227.566406 70.769531 165.582031 55.25 103.625 C 54.652344 101.089844 54.925781 98.417969 55.496094 95.882812 C 53.210938 97.328125 50.625 98.144531 48.226562 99.316406 Z M 48.226562 99.316406 " fill-opacity="1" fill-rule="nonzero"/></g><path fill="#ffffff" d="M 181.996094 74.621094 C 182.210938 74.132812 182.402344 73.613281 182.621094 73.125 C 183.03125 73.203125 183.574219 73.230469 183.792969 73.667969 C 184.011719 74.132812 183.875 74.621094 183.820312 75.113281 C 185.589844 75.550781 187.386719 76.011719 189.128906 76.558594 C 188.992188 77.074219 188.855469 77.621094 188.71875 78.164062 C 186.894531 77.757812 185.097656 77.210938 183.273438 76.804688 C 181.777344 82.664062 180.199219 88.496094 178.699219 94.382812 C 184.527344 89.695312 190.328125 84.925781 196.070312 80.128906 C 194.300781 79.636719 192.503906 79.203125 190.734375 78.710938 C 190.898438 78.164062 191.035156 77.59375 191.171875 77.046875 C 193.59375 77.648438 195.988281 78.382812 198.441406 78.820312 C 199.746094 79.230469 201.027344 79.664062 202.359375 79.964844 C 202.226562 80.511719 202.0625 81.054688 201.925781 81.628906 C 200.726562 81.328125 199.503906 81.027344 198.332031 80.671875 C 194.191406 83.917969 190.191406 87.324219 186.132812 90.648438 C 187.523438 97.765625 188.882812 104.90625 190.355469 112.019531 C 191.414062 112.511719 192.585938 112.675781 193.703125 112.972656 C 193.59375 113.546875 193.484375 114.09375 193.320312 114.636719 C 189.535156 113.875 185.859375 112.675781 182.105469 111.746094 C 182.238281 111.175781 182.402344 110.628906 182.539062 110.085938 C 184.5 110.574219 186.433594 111.121094 188.394531 111.613281 C 187.113281 105.070312 185.835938 98.527344 184.527344 91.984375 C 182.292969 93.8125 179.953125 95.503906 177.910156 97.546875 C 176.875 101.035156 176.058594 104.578125 175.105469 108.09375 C 176.902344 108.667969 178.78125 109.050781 180.578125 109.59375 C 180.386719 110.140625 180.144531 110.683594 179.898438 111.203125 C 178.183594 110.710938 176.441406 110.277344 174.726562 109.8125 C 174.5625 110.277344 174.371094 110.710938 174.207031 111.175781 C 173.691406 111.09375 173.171875 111.011719 172.65625 110.929688 C 172.765625 110.414062 172.847656 109.894531 172.957031 109.347656 C 171.59375 108.996094 170.234375 108.640625 168.871094 108.285156 C 169.007812 107.742188 169.171875 107.167969 169.335938 106.625 C 170.695312 106.976562 172.058594 107.332031 173.417969 107.6875 C 176.140625 97.246094 178.890625 86.808594 181.585938 76.367188 C 180.226562 75.984375 178.863281 75.628906 177.503906 75.277344 C 177.636719 74.730469 177.800781 74.160156 177.9375 73.613281 C 179.328125 73.914062 180.660156 74.242188 181.996094 74.621094 Z M 181.996094 74.621094 " fill-opacity="1" fill-rule="nonzero"/><path fill="#ffffff" d="M 125.933594 80.101562 C 127.351562 79.039062 129.203125 78.792969 130.945312 78.820312 C 133.09375 78.875 135.300781 79.828125 136.5 81.683594 C 137.96875 83.890625 138.296875 86.589844 138.511719 89.179688 C 138.757812 92.367188 138.621094 95.554688 138.648438 98.746094 C 138.675781 102.5625 138.566406 106.460938 137.261719 110.085938 C 138.839844 111.285156 140.855469 111.773438 142.816406 111.828125 C 142.816406 112.402344 142.816406 112.945312 142.84375 113.519531 C 140.554688 113.546875 138.269531 112.894531 136.390625 111.585938 C 133.367188 115.15625 126.886719 115.101562 124.273438 111.09375 C 122.367188 107.851562 122.367188 103.953125 122.230469 100.328125 C 120.84375 100.109375 119.453125 100.027344 118.066406 100 C 118.09375 99.425781 118.09375 98.855469 118.09375 98.28125 C 119.480469 98.28125 120.871094 98.363281 122.230469 98.554688 C 122.285156 93.976562 121.957031 89.3125 123.046875 84.816406 C 123.457031 82.992188 124.410156 81.21875 125.933594 80.101562 Z M 125.933594 82.527344 C 124.652344 84.300781 124.355469 86.535156 124.136719 88.632812 C 123.835938 92.066406 123.890625 95.503906 123.945312 98.9375 C 126.234375 99.5625 128.410156 100.625 130.207031 102.207031 C 132.414062 104.089844 133.9375 106.597656 135.871094 108.722656 C 137.179688 104.824219 136.933594 100.625 136.960938 96.566406 C 136.960938 93.648438 137.042969 90.730469 136.6875 87.816406 C 136.390625 85.769531 136.035156 83.5625 134.566406 82.035156 C 133.53125 80.890625 131.898438 80.59375 130.425781 80.539062 C 128.738281 80.539062 126.941406 81.082031 125.933594 82.527344 Z M 123.972656 100.734375 C 124.054688 103.433594 124.136719 106.214844 125.0625 108.777344 C 125.578125 110.167969 126.558594 111.503906 128.003906 111.992188 C 130.371094 112.867188 133.394531 112.484375 135.054688 110.441406 C 133.066406 108.230469 131.460938 105.695312 129.28125 103.679688 C 127.757812 102.289062 125.933594 101.308594 123.972656 100.734375 Z M 123.972656 100.734375 " fill-opacity="1" fill-rule="nonzero"/><path fill="#ffffff" d="M 221.582031 108.613281 C 227.820312 98.800781 233.945312 88.960938 240.125 79.121094 C 240.617188 79.3125 241.105469 79.472656 241.59375 79.664062 C 240.234375 91.195312 238.847656 102.726562 237.621094 114.253906 C 238.738281 114.609375 239.824219 114.992188 240.886719 115.480469 C 240.695312 115.972656 240.507812 116.464844 240.316406 116.980469 C 237.292969 115.945312 234.273438 114.828125 231.222656 113.820312 C 231.386719 113.273438 231.546875 112.730469 231.710938 112.183594 C 233.128906 112.675781 234.542969 113.136719 235.933594 113.683594 C 236.175781 111.394531 236.421875 109.105469 236.722656 106.8125 C 233.425781 105.640625 230.160156 104.386719 226.839844 103.378906 C 225.695312 105.371094 224.414062 107.277344 223.246094 109.210938 C 224.660156 109.703125 226.074219 110.195312 227.464844 110.710938 C 227.246094 111.230469 227.027344 111.746094 226.8125 112.265625 C 223.789062 111.175781 220.792969 110.113281 217.746094 109.078125 C 217.90625 108.53125 218.070312 108.011719 218.234375 107.46875 C 219.378906 107.824219 220.46875 108.203125 221.582031 108.613281 Z M 227.898438 101.851562 C 230.867188 102.945312 233.890625 103.925781 236.859375 105.042969 C 237.894531 97.847656 238.546875 90.59375 239.472656 83.371094 C 235.632812 89.558594 231.683594 95.664062 227.898438 101.851562 Z M 227.898438 101.851562 " fill-opacity="1" fill-rule="nonzero"/><path fill="#ffffff" d="M 76.269531 92.039062 C 80.355469 91.085938 84.4375 90.105469 88.496094 89.125 C 88.632812 89.667969 88.769531 90.214844 88.90625 90.757812 C 84.847656 91.820312 80.738281 92.695312 76.652344 93.730469 C 76.542969 93.183594 76.40625 92.613281 76.269531 92.039062 Z M 76.269531 92.039062 " fill-opacity="1" fill-rule="nonzero"/><path fill="#ffffff" d="M 82.097656 93.292969 C 82.640625 93.128906 83.214844 92.996094 83.785156 92.832031 C 85.691406 100.898438 87.597656 108.941406 89.53125 116.980469 C 90.128906 119.433594 89.421875 122.242188 87.542969 123.988281 C 85.664062 125.730469 83.078125 126.496094 80.574219 126.710938 C 78.257812 126.929688 75.753906 126.222656 74.203125 124.449219 C 72.949219 123.113281 72.40625 121.316406 72.023438 119.542969 C 72.59375 119.40625 73.140625 119.269531 73.710938 119.136719 C 74.011719 121.34375 75.15625 123.6875 77.304688 124.558594 C 79.917969 125.511719 82.859375 124.859375 85.230469 123.550781 C 87.433594 122.378906 88.523438 119.570312 87.84375 117.199219 C 85.910156 109.238281 84.058594 101.253906 82.097656 93.292969 Z M 82.097656 93.292969 " fill-opacity="1" fill-rule="nonzero"/><path fill="#ffffff" d="M 31.453125 112.539062 C 34.449219 111.882812 37.933594 113.21875 39.269531 116.109375 C 42.507812 123.277344 45.640625 130.5 48.851562 137.671875 C 49.75 139.714844 49.535156 142.222656 48.308594 144.101562 C 46.8125 146.503906 43.871094 147.863281 41.09375 147.511719 C 38.726562 147.265625 36.546875 145.683594 35.59375 143.503906 C 32.40625 136.335938 29.195312 129.164062 26.0625 121.96875 C 24.484375 118.015625 27.371094 113.300781 31.453125 112.539062 Z M 31.402344 114.390625 C 28.542969 115.183594 26.664062 118.535156 27.726562 121.34375 C 30.855469 128.539062 34.097656 135.707031 37.253906 142.902344 C 38.671875 145.875 43.027344 146.664062 45.503906 144.566406 C 47.300781 143.175781 48.171875 140.53125 47.21875 138.40625 C 44.0625 131.292969 40.929688 124.175781 37.746094 117.0625 C 36.710938 114.71875 33.769531 113.683594 31.402344 114.390625 Z M 31.402344 114.390625 " fill-opacity="1" fill-rule="nonzero"/><path fill="#ffffff" d="M 171.8125 121.316406 C 172.191406 118.5625 174.78125 116.382812 177.53125 116.273438 C 179.136719 116.21875 180.769531 116.628906 182.105469 117.554688 C 184.28125 119 185.34375 121.96875 184.5 124.449219 C 183.847656 126.359375 182.292969 127.804688 180.660156 128.921875 C 182.238281 128.703125 183.902344 128.867188 185.34375 129.574219 C 187.003906 130.390625 188.339844 131.917969 188.746094 133.773438 C 189.265625 136.226562 188.285156 138.980469 186.1875 140.394531 C 184.117188 141.949219 181.042969 141.894531 178.972656 140.367188 C 177.257812 139.167969 176.496094 137.125 175.921875 135.191406 C 174.996094 138.050781 175.023438 141.269531 176.441406 143.96875 C 174.042969 143.339844 171.675781 142.714844 169.28125 142.113281 C 171.921875 140.503906 173.390625 137.589844 174.179688 134.699219 C 172.929688 135.84375 171.59375 136.960938 169.960938 137.480469 C 167.835938 138.160156 165.332031 137.5625 163.78125 135.925781 C 162.039062 134.125 161.4375 131.265625 162.472656 128.976562 C 163.425781 126.46875 166.203125 124.941406 168.816406 125.214844 C 170.316406 125.296875 171.675781 126.003906 172.902344 126.792969 C 172.140625 125.078125 171.484375 123.222656 171.8125 121.316406 Z M 171.8125 121.316406 " fill-opacity="1" fill-rule="nonzero"/><path fill="#ffffff" d="M 219.542969 121.234375 C 220.277344 118.863281 222.699219 117.253906 225.148438 117.28125 C 227.027344 117.308594 228.960938 118.097656 230.1875 119.542969 C 231.628906 121.207031 232.121094 123.714844 231.140625 125.703125 C 230.324219 127.367188 228.851562 128.566406 227.273438 129.492188 C 229.589844 129.246094 231.984375 130.257812 233.398438 132.109375 C 234.734375 133.773438 234.898438 136.226562 233.972656 138.132812 C 232.691406 140.832031 229.316406 142.386719 226.484375 141.242188 C 223.925781 140.367188 222.726562 137.644531 222.183594 135.191406 C 221.09375 137.78125 220.929688 140.777344 222.019531 143.394531 C 219.839844 142.632812 217.636719 141.839844 215.429688 141.078125 C 217.90625 139.6875 219.652344 137.261719 220.46875 134.5625 C 218.777344 135.707031 216.925781 137.042969 214.777344 136.851562 C 212.109375 136.742188 209.792969 134.5625 209.359375 131.972656 C 208.8125 129.164062 210.503906 126.03125 213.277344 125.1875 C 215.648438 124.421875 218.316406 125.214844 220.085938 126.929688 C 219.433594 125.1875 218.96875 123.140625 219.542969 121.234375 Z M 219.542969 121.234375 " fill-opacity="1" fill-rule="nonzero"/><path fill="#ffffff" d="M 15.363281 118.671875 C 15.910156 118.398438 16.453125 118.152344 16.996094 117.910156 C 22.226562 129.738281 27.480469 141.515625 32.652344 153.34375 C 32.109375 153.5625 31.589844 153.808594 31.046875 154.050781 C 25.820312 142.25 20.617188 130.445312 15.363281 118.671875 Z M 15.363281 118.671875 " fill-opacity="1" fill-rule="nonzero"/><path fill="#ffffff" d="M 126.695312 120.363281 C 128.167969 119.324219 130.046875 119.082031 131.761719 119.351562 C 134.238281 119.789062 136.417969 121.777344 136.824219 124.285156 C 137.234375 126.738281 135.953125 129.113281 134.320312 130.855469 C 136.742188 129.792969 139.792969 129.929688 141.863281 131.699219 C 143.796875 133.28125 144.394531 136.089844 143.605469 138.378906 C 142.976562 140.179688 141.507812 141.703125 139.683594 142.277344 C 137.96875 142.847656 135.980469 142.605469 134.457031 141.566406 C 133.09375 140.667969 132.195312 139.277344 131.351562 137.914062 C 131.296875 140.886719 131.976562 144.046875 134.128906 146.230469 C 131.679688 146.257812 129.226562 146.285156 126.777344 146.230469 C 128.929688 144.046875 129.582031 140.886719 129.582031 137.914062 C 128.300781 140.152344 126.34375 142.386719 123.621094 142.578125 C 119.972656 143.011719 116.566406 139.441406 117.003906 135.816406 C 117.113281 132.898438 119.699219 130.472656 122.53125 130.203125 C 123.917969 130.011719 125.335938 130.363281 126.613281 130.882812 C 125.308594 129.4375 124.191406 127.667969 124.027344 125.648438 C 123.835938 123.578125 124.953125 121.507812 126.695312 120.363281 Z M 126.695312 120.363281 " fill-opacity="1" fill-rule="nonzero"/><path fill="#ffffff" d="M 83.621094 131.78125 C 85.285156 130.71875 87.40625 130.339844 89.3125 130.910156 C 91.355469 131.457031 93.042969 133.199219 93.453125 135.273438 C 93.832031 137.261719 93.207031 139.277344 92.28125 141.023438 C 94.1875 139.578125 96.800781 139.113281 99.058594 139.90625 C 100.613281 140.449219 101.835938 141.730469 102.464844 143.257812 C 103.253906 145.277344 102.871094 147.703125 101.566406 149.417969 C 100.503906 150.863281 98.679688 151.707031 96.910156 151.734375 C 94.621094 151.679688 92.609375 150.316406 91.082031 148.683594 C 91.628906 151.542969 93.097656 154.324219 95.601562 155.90625 C 93.261719 156.480469 90.890625 157.050781 88.523438 157.597656 C 90.074219 155.0625 90.019531 151.898438 89.339844 149.089844 C 88.796875 150.289062 88.414062 151.570312 87.597656 152.609375 C 86.453125 154.214844 84.464844 155.171875 82.480469 155.0625 C 80.164062 155.007812 77.988281 153.425781 77.140625 151.273438 C 76.296875 149.28125 76.515625 146.828125 77.933594 145.140625 C 79.539062 143.121094 82.316406 142.386719 84.792969 142.820312 C 83.132812 141.730469 81.636719 140.207031 81.089844 138.242188 C 80.382812 135.84375 81.554688 133.117188 83.621094 131.78125 Z M 83.621094 131.78125 " fill-opacity="1" fill-rule="nonzero"/><path fill="#ffffff" d="M 39.976562 154.84375 C 41.421875 153.453125 43.488281 152.691406 45.503906 153.015625 C 47.492188 153.261719 49.316406 154.652344 49.996094 156.53125 C 50.625 158.332031 50.378906 160.292969 49.832031 162.066406 C 51.546875 160.132812 54.40625 159.121094 56.914062 160.023438 C 59.746094 160.949219 61.378906 164.355469 60.535156 167.191406 C 59.90625 169.726562 57.347656 171.578125 54.761719 171.390625 C 52.992188 171.335938 51.46875 170.378906 50.050781 169.453125 C 51.058594 172.042969 52.9375 174.414062 55.550781 175.503906 C 53.425781 176.429688 51.304688 177.386719 49.207031 178.3125 C 50.214844 175.613281 49.617188 172.644531 48.445312 170.109375 C 48.117188 172.316406 47.464844 174.796875 45.476562 176.078125 C 43.515625 177.46875 40.765625 177.304688 38.859375 175.914062 C 37.71875 175.148438 36.953125 173.894531 36.574219 172.589844 C 35.976562 170.433594 36.765625 167.980469 38.507812 166.617188 C 39.785156 165.527344 41.476562 165.066406 43.136719 165.039062 C 41.421875 164.300781 39.785156 163.183594 38.886719 161.519531 C 37.664062 159.367188 38.234375 156.53125 39.976562 154.84375 Z M 39.976562 154.84375 " fill-opacity="1" fill-rule="nonzero"/><path fill="#ffffff" d="M 248.648438 170.542969 C 250.253906 162.9375 257.796875 157.433594 265.445312 157.433594 C 269.804688 157.460938 274.160156 158.824219 277.726562 161.359375 C 283.253906 165.199219 286.195312 172.398438 284.914062 178.992188 C 284.152344 182.78125 281.917969 186.109375 279.167969 188.753906 C 276.828125 190.988281 274.105469 192.757812 271.246094 194.257812 C 275.464844 193.820312 279.933594 194.257812 283.742188 196.277344 C 288.046875 198.402344 291.53125 202.191406 293.082031 206.742188 C 294.960938 212.25 293.707031 218.574219 290.195312 223.152344 C 286.875 227.621094 281.402344 230.457031 275.792969 230.320312 C 271.054688 230.292969 266.371094 228.25 263.1875 224.734375 C 259.59375 220.835938 258.066406 215.546875 257.140625 210.449219 C 255.425781 214.511719 254.339844 218.84375 254.148438 223.261719 C 254.039062 226.285156 254.230469 229.394531 255.238281 232.257812 C 255.617188 233.402344 256.027344 234.519531 256.378906 235.664062 C 249.820312 233.484375 243.285156 231.164062 236.777344 228.765625 C 238.871094 227.402344 241.132812 226.203125 242.929688 224.40625 C 247.503906 220.070312 250.253906 214.210938 252.296875 208.351562 C 249.65625 210.640625 246.90625 212.847656 243.71875 214.347656 C 240.34375 215.929688 236.503906 216.609375 232.800781 215.929688 C 227.628906 215.027344 222.890625 211.703125 220.441406 207.042969 C 216.628906 200.199219 217.960938 190.90625 223.570312 185.425781 C 226.101562 182.863281 229.507812 181.257812 233.046875 180.738281 C 238.109375 179.976562 243.445312 181.203125 247.613281 184.171875 C 248.894531 185.074219 249.980469 186.164062 251.125 187.199219 C 248.839844 182.019531 247.394531 176.1875 248.648438 170.542969 Z M 248.648438 170.542969 " fill-opacity="1" fill-rule="nonzero"/><path fill="#ffffff" d="M 293.816406 248.71875 C 295.859375 249.457031 297.984375 250.054688 299.945312 250.957031 C 297.4375 252.019531 295.996094 254.609375 295.125 257.0625 C 296.839844 255.507812 299.234375 254.226562 301.632812 254.933594 C 304.679688 255.671875 306.398438 259.378906 305.253906 262.238281 C 304.601562 264.148438 302.777344 265.566406 300.761719 265.785156 C 298.855469 266 296.976562 265.183594 295.585938 263.929688 C 296.242188 265.539062 296.648438 267.363281 296.1875 269.082031 C 295.667969 271.070312 293.84375 272.515625 291.882812 272.84375 C 289.652344 273.199219 287.257812 272.214844 285.949219 270.363281 C 284.96875 269.054688 284.695312 267.253906 285.1875 265.703125 C 285.8125 263.875 287.390625 262.59375 288.972656 261.585938 C 286.492188 261.859375 283.851562 260.550781 282.761719 258.261719 C 281.621094 255.917969 282.546875 252.917969 284.640625 251.417969 C 286.683594 249.863281 289.816406 250.082031 291.613281 251.910156 C 292.835938 253.054688 293.273438 254.746094 293.679688 256.296875 C 294.6875 253.953125 294.824219 251.144531 293.816406 248.71875 Z M 293.816406 248.71875 " fill-opacity="1" fill-rule="nonzero"/><path fill="#ffffff" d="M 276.691406 274.371094 C 276.773438 274.152344 276.964844 273.6875 277.046875 273.46875 C 279.714844 274.371094 282.355469 275.378906 285.050781 276.25 C 284.941406 276.578125 284.832031 276.933594 284.695312 277.285156 C 283.390625 276.824219 282.109375 276.386719 280.832031 275.898438 C 280.394531 278.160156 280.285156 280.476562 279.933594 282.738281 C 283.144531 283.800781 286.25 285.191406 289.542969 285.980469 C 290.605469 283.992188 291.910156 282.164062 293.054688 280.230469 C 291.722656 279.792969 290.414062 279.304688 289.105469 278.839844 C 289.214844 278.59375 289.40625 278.105469 289.488281 277.859375 C 292.128906 278.839844 294.796875 279.738281 297.464844 280.695312 C 297.382812 280.9375 297.222656 281.457031 297.140625 281.703125 C 296.132812 281.347656 295.097656 280.992188 294.089844 280.640625 C 288.425781 289.714844 282.65625 298.710938 277.074219 307.816406 C 276.691406 307.734375 276.335938 307.652344 275.984375 307.570312 C 277.238281 296.941406 278.488281 286.308594 279.6875 275.679688 C 278.789062 275.023438 277.671875 274.886719 276.691406 274.371094 Z M 279.878906 283.855469 C 278.953125 290.914062 278.242188 298.003906 277.34375 305.089844 C 279.90625 301.464844 282.082031 297.621094 284.507812 293.886719 C 285.894531 291.570312 287.5 289.363281 288.753906 286.9375 C 285.757812 285.980469 282.84375 284.863281 279.878906 283.855469 Z M 279.878906 283.855469 " fill-opacity="1" fill-rule="nonzero"/></svg>