<svg xmlns="http://www.w3.org/2000/svg" xmlns:xlink="http://www.w3.org/1999/xlink" width="500" zoomAndPan="magnify" viewBox="0 0 375 374.999991" height="500" preserveAspectRatio="xMidYMid meet" version="1.0"><defs><clipPath id="9a273c8516"><path d="M 11.191406 18.683594 L 363.691406 18.683594 L 363.691406 356.183594 L 11.191406 356.183594 Z M 11.191406 18.683594 " clip-rule="nonzero"/></clipPath></defs><g clip-path="url(#9a273c8516)"><path fill="#ffffff" d="M 350.574219 86.117188 L 352.261719 84.414062 C 359.535156 77.152344 363.527344 67.5 363.527344 57.21875 C 363.527344 36.023438 346.277344 18.789062 325.0625 18.789062 C 314.796875 18.789062 305.144531 22.789062 297.878906 30.054688 L 274.21875 53.710938 L 156.027344 63.570312 L 63.988281 48.226562 C 60.042969 47.480469 56.261719 50.222656 55.570312 54.183594 L 11.5625 303.546875 C 11.222656 305.46875 11.660156 307.449219 12.792969 309.046875 C 13.921875 310.644531 15.640625 311.730469 17.574219 312.054688 L 83.414062 323.027344 L 84.820312 349.222656 C 84.9375 351.230469 85.863281 353.109375 87.402344 354.414062 C 88.738281 355.546875 90.410156 356.160156 92.140625 356.160156 C 92.417969 356.160156 92.683594 356.144531 92.949219 356.117188 L 206.34375 343.515625 L 281.628906 356.058594 C 282.039062 356.132812 282.453125 356.160156 282.84375 356.160156 C 286.355469 356.160156 289.449219 353.652344 290.050781 350.085938 L 292.910156 333.894531 L 357 326.765625 C 360.875 326.339844 363.738281 322.953125 363.515625 319.066406 Z M 282.84375 65.84375 L 316.46875 99.464844 L 213.386719 202.539062 C 210.996094 196.496094 207.015625 189.292969 199.992188 182.28125 C 192.996094 175.285156 185.808594 171.296875 179.761719 168.917969 Z M 201.035156 211.355469 L 160.898438 221.398438 L 170.945312 181.269531 C 175.683594 182.648438 182.695312 185.699219 189.636719 192.652344 C 196.589844 199.605469 199.652344 206.632812 201.035156 211.355469 Z M 258.15625 69.777344 L 248.898438 79.03125 L 214.925781 73.382812 Z M 99.050781 340.6875 L 98.226562 325.492188 L 153.226562 334.65625 Z M 276.875 340.378906 L 27.289062 298.792969 L 68.746094 63.878906 L 236.152344 91.777344 L 160.296875 167.628906 C 160.207031 167.714844 160.191406 167.863281 160.121094 167.953125 C 159.445312 168.699219 158.960938 169.5625 158.65625 170.558594 C 158.59375 170.738281 158.433594 170.855469 158.390625 171.03125 L 143.71875 229.703125 C 143.089844 232.214844 143.824219 234.851562 145.644531 236.671875 C 147.019531 238.050781 148.898438 238.816406 150.820312 238.816406 C 151.421875 238.816406 152.007812 238.742188 152.59375 238.578125 L 211.273438 223.910156 C 211.449219 223.867188 211.566406 223.707031 211.726562 223.644531 C 212.652344 223.335938 213.488281 222.871094 214.207031 222.253906 C 214.339844 222.136719 214.546875 222.121094 214.675781 221.988281 L 315.574219 121.101562 Z M 295.5625 318.84375 L 333.644531 103.015625 L 336.652344 100.007812 L 348.476562 312.960938 Z M 341.890625 74.042969 L 326.839844 89.09375 L 293.21875 55.472656 L 308.269531 40.410156 C 312.757812 35.90625 318.726562 33.445312 325.09375 33.445312 C 338.195312 33.445312 348.859375 44.105469 348.859375 57.234375 C 348.859375 63.585938 346.382812 69.554688 341.890625 74.042969 Z M 341.890625 74.042969 " fill-opacity="1" fill-rule="nonzero"/></g></svg>