<svg xmlns="http://www.w3.org/2000/svg" xmlns:xlink="http://www.w3.org/1999/xlink" width="500" zoomAndPan="magnify" viewBox="0 0 375 374.999991" height="500" preserveAspectRatio="xMidYMid meet" version="1.0"><path fill="#ffffff" d="M 337.410156 254.722656 C 321.222656 217.085938 272.945312 116.128906 253.535156 73.125 C 246.371094 57.027344 241.144531 45.578125 236.84375 36.492188 C 232.691406 27.691406 229.394531 21.109375 226.101562 14.597656 C 218.792969 0 202.105469 8.800781 200.3125 9.800781 C 198.023438 10.804688 153.324219 30.980469 136.636719 41.070312 C 104.402344 59.816406 50.96875 84.429688 33.992188 95.019531 C 24.96875 100.742188 31.34375 111.835938 32.488281 113.625 C 32.488281 113.625 34.78125 118.917969 34.78125 118.917969 C 30.914062 120.207031 28.40625 124.140625 30.269531 128.078125 C 30.269531 128.078125 32.203125 132.15625 32.203125 132.15625 C 33.847656 135.804688 38.363281 136.734375 41.65625 134.730469 C 44.378906 141.097656 46.3125 145.605469 48.675781 151.332031 C 45.09375 152.617188 43.160156 156.625 44.808594 160.203125 C 44.808594 160.203125 46.742188 164.28125 46.742188 164.28125 C 48.320312 167.644531 52.472656 168.859375 55.695312 167.070312 C 57.988281 172.082031 60.996094 178.59375 63.21875 183.457031 C 59.5625 184.746094 57.628906 188.753906 59.277344 192.328125 C 59.277344 192.328125 61.210938 196.40625 61.210938 196.40625 C 62.859375 199.914062 67.15625 200.988281 70.453125 199.054688 C 72.957031 204.492188 75.539062 209.929688 78.042969 215.371094 C 74.246094 216.585938 72.027344 220.664062 73.816406 224.382812 C 73.816406 224.382812 75.753906 228.464844 75.753906 228.464844 C 77.472656 232.183594 81.984375 233.042969 85.351562 230.96875 C 87.425781 235.402344 90.867188 242.773438 92.800781 247.351562 C 89.003906 248.570312 86.566406 252.648438 88.359375 256.441406 C 88.359375 256.441406 90.292969 260.519531 90.292969 260.519531 C 91.941406 264.023438 96.308594 265.097656 99.53125 263.164062 C 101.898438 268.675781 104.1875 274.257812 106.625 279.765625 C 103.042969 281.054688 101.179688 285.058594 102.898438 288.566406 C 102.898438 288.566406 104.832031 292.644531 104.832031 292.644531 C 106.335938 295.863281 110.277344 297.222656 113.429688 295.578125 C 115.21875 299.726562 118.800781 308.027344 120.589844 312.179688 C 117.367188 313.679688 115.9375 317.472656 117.441406 320.691406 C 117.441406 320.691406 119.375 324.769531 119.375 324.769531 C 120.804688 327.777344 124.316406 329.136719 127.394531 327.917969 C 130.117188 334.144531 132.195312 338.867188 134.703125 344.449219 C 131.695312 346.023438 130.476562 349.671875 131.980469 352.746094 C 131.980469 352.746094 133.914062 356.824219 133.914062 356.824219 C 135.347656 359.832031 138.855469 361.261719 142.007812 359.972656 C 148.382812 375 162.421875 371.707031 173.382812 366.34375 C 177.679688 364.769531 186.058594 361.761719 211.128906 348.8125 C 226.816406 340.65625 251.457031 330.566406 274.878906 320.980469 C 303.316406 309.316406 330.035156 298.296875 337.699219 292.070312 C 350.375 282.414062 346.222656 273.539062 337.410156 254.722656 Z M 38.363281 130.152344 C 38.003906 130.367188 37.429688 130.152344 37.289062 129.792969 C 37.289062 129.792969 35.355469 125.644531 35.355469 125.644531 C 35.140625 125.285156 35.355469 124.714844 35.710938 124.570312 C 38.21875 123.355469 51.253906 117.199219 54.121094 115.839844 C 54.476562 115.769531 54.910156 115.914062 55.125 116.269531 C 55.125 116.269531 57.058594 120.421875 57.058594 120.421875 C 57.273438 120.777344 57.058594 121.351562 56.699219 121.492188 C 53.976562 122.710938 40.726562 129.007812 38.363281 130.152344 Z M 57.414062 111.046875 C 63.289062 110.046875 66.941406 117.703125 62.644531 121.636719 C 62.789062 120.421875 62.644531 119.132812 62.070312 117.988281 C 60.851562 115.484375 59.992188 112.480469 57.414062 111.046875 Z M 71.957031 143.175781 C 77.828125 142.171875 81.484375 149.828125 77.183594 153.761719 C 77.6875 151.402344 75.609375 148.109375 74.679688 146.035156 C 74.105469 144.820312 73.101562 143.890625 71.957031 143.175781 Z M 52.902344 162.277344 C 52.542969 162.492188 51.972656 162.277344 51.828125 161.921875 C 51.828125 161.921875 49.894531 157.769531 49.894531 157.769531 C 49.679688 157.414062 49.894531 156.839844 50.253906 156.695312 C 53.117188 155.335938 65.507812 149.46875 68.589844 148.039062 C 68.949219 147.824219 69.449219 148.039062 69.664062 148.398438 C 69.664062 148.398438 71.597656 152.546875 71.597656 152.546875 C 71.8125 152.90625 71.597656 153.476562 71.238281 153.621094 C 71.238281 153.621094 68.160156 155.050781 68.160156 155.050781 C 68.160156 155.050781 52.902344 162.277344 52.902344 162.277344 Z M 86.566406 175.300781 C 92.441406 174.296875 96.09375 181.953125 91.796875 185.890625 C 91.941406 184.671875 91.796875 183.386719 91.222656 182.242188 C 90.148438 180.164062 88.933594 176.445312 86.566406 175.300781 Z M 67.515625 194.40625 C 67.15625 194.621094 66.582031 194.40625 66.441406 194.046875 C 66.441406 194.046875 64.507812 189.898438 64.507812 189.898438 C 64.292969 189.539062 64.507812 188.96875 64.863281 188.824219 C 67.441406 187.605469 80.335938 181.453125 83.203125 180.164062 C 83.417969 180.09375 83.632812 180.09375 83.847656 180.164062 C 84.347656 180.09375 85.996094 184.386719 86.28125 184.671875 C 86.496094 185.03125 86.28125 185.605469 85.921875 185.746094 C 83.34375 186.890625 69.59375 193.472656 67.515625 194.40625 Z M 101.109375 207.5 C 106.980469 206.496094 110.636719 214.152344 106.335938 218.089844 C 106.839844 215.726562 104.761719 212.4375 103.832031 210.359375 C 103.257812 209.144531 102.253906 208.140625 101.109375 207.5 Z M 82.054688 226.601562 C 81.699219 226.816406 81.125 226.601562 80.980469 226.246094 C 80.980469 226.246094 79.046875 222.09375 79.046875 222.09375 C 78.832031 221.738281 79.046875 221.164062 79.40625 221.023438 C 82.269531 219.664062 94.589844 213.796875 97.742188 212.363281 C 98.101562 212.148438 98.601562 212.363281 98.816406 212.722656 C 98.816406 212.722656 100.75 216.871094 100.75 216.871094 C 100.964844 217.230469 100.75 217.800781 100.390625 217.945312 C 100.390625 217.945312 97.3125 219.375 97.3125 219.375 C 94.664062 220.59375 84.492188 225.386719 82.054688 226.601562 Z M 115.722656 239.625 C 121.59375 238.625 125.246094 246.28125 120.949219 250.214844 C 121.09375 249 120.949219 247.710938 120.375 246.566406 C 119.230469 244.492188 118.011719 240.699219 115.722656 239.625 Z M 96.597656 258.730469 C 96.238281 258.945312 95.664062 258.730469 95.523438 258.371094 C 95.523438 258.371094 93.585938 254.222656 93.585938 254.222656 C 93.371094 253.863281 93.585938 253.292969 93.945312 253.148438 C 97.3125 251.574219 108.703125 246.136719 112.28125 244.492188 C 112.640625 244.277344 113.140625 244.492188 113.355469 244.847656 C 113.355469 244.847656 115.292969 249 115.292969 249 C 115.507812 249.355469 115.292969 249.929688 114.933594 250.070312 C 114.933594 250.070312 111.851562 251.503906 111.851562 251.503906 C 111.925781 251.503906 96.597656 258.730469 96.597656 258.730469 Z M 111.207031 290.855469 C 110.851562 291.070312 110.277344 290.855469 110.132812 290.496094 C 110.132812 290.496094 108.199219 286.347656 108.199219 286.347656 C 107.984375 285.992188 108.199219 285.417969 108.558594 285.273438 C 110.492188 284.34375 124.601562 277.691406 126.894531 276.617188 C 127.253906 276.402344 127.753906 276.617188 127.96875 276.976562 C 127.96875 276.976562 129.902344 281.125 129.902344 281.125 C 130.117188 281.484375 129.902344 282.054688 129.546875 282.199219 C 129.546875 282.199219 126.464844 283.628906 126.464844 283.628906 C 126.464844 283.628906 111.207031 290.855469 111.207031 290.855469 Z M 130.261719 271.75 C 136.136719 270.75 139.789062 278.40625 135.492188 282.339844 C 135.632812 281.125 135.492188 279.835938 134.917969 278.691406 C 133.84375 276.617188 132.625 272.894531 130.261719 271.75 Z M 125.75 323.054688 C 125.390625 323.269531 124.816406 323.054688 124.675781 322.695312 C 124.675781 322.695312 122.742188 318.546875 122.742188 318.546875 C 122.527344 318.1875 122.742188 317.617188 123.097656 317.472656 C 124.171875 316.972656 139.859375 309.53125 141.4375 308.816406 C 141.792969 308.601562 142.296875 308.816406 142.511719 309.171875 C 142.511719 309.171875 144.445312 313.324219 144.445312 313.324219 C 144.660156 313.679688 144.445312 314.253906 144.085938 314.394531 C 144.085938 314.394531 141.003906 315.828125 141.003906 315.828125 C 141.078125 315.753906 125.75 323.054688 125.75 323.054688 Z M 144.800781 303.949219 C 150.675781 302.949219 154.328125 310.605469 150.03125 314.539062 C 150.53125 312.179688 148.457031 308.886719 147.523438 306.8125 C 146.949219 305.59375 145.949219 304.59375 144.800781 303.949219 Z M 159.414062 336.074219 C 165.289062 335.074219 168.941406 342.730469 164.644531 346.664062 C 164.785156 345.449219 164.644531 344.160156 164.070312 343.015625 C 162.996094 340.871094 161.777344 337.148438 159.414062 336.074219 Z M 140.359375 355.179688 C 140.003906 355.394531 139.429688 355.179688 139.285156 354.824219 C 139.285156 354.824219 137.351562 350.671875 137.351562 350.671875 C 137.136719 350.316406 137.351562 349.742188 137.710938 349.597656 C 138.714844 349.171875 154.542969 341.65625 156.046875 340.941406 C 156.40625 340.726562 156.90625 340.941406 157.121094 341.300781 C 157.121094 341.300781 159.054688 345.449219 159.054688 345.449219 C 159.269531 345.808594 159.054688 346.378906 158.699219 346.523438 C 158.699219 346.523438 155.617188 347.953125 155.617188 347.953125 C 154.257812 348.597656 141.292969 354.75 140.359375 355.179688 Z M 334.476562 288.066406 C 314.921875 301.515625 235.054688 329.78125 208.839844 344.160156 C 184.054688 356.96875 175.960938 359.902344 171.734375 361.40625 C 166.433594 363.265625 163.210938 366.199219 156.261719 365.554688 C 152.679688 365.199219 149.746094 363.265625 148.097656 359.542969 C 148.097656 359.542969 147.238281 357.898438 147.238281 357.898438 L 156.90625 353.320312 C 168.296875 356.96875 176.964844 342.300781 168.65625 334 C 163.210938 327.847656 151.964844 329.996094 149.316406 337.863281 L 139.929688 342.300781 C 137.996094 338.078125 134.632812 330.28125 132.625 325.84375 L 142.367188 321.265625 C 153.753906 324.914062 162.421875 310.246094 154.113281 301.945312 C 148.671875 295.792969 137.425781 297.9375 134.773438 305.808594 L 125.75 310.101562 L 118.585938 293.503906 L 127.753906 289.136719 C 139.144531 292.789062 147.8125 278.121094 139.5 269.820312 C 134.058594 263.667969 122.8125 265.8125 120.160156 273.683594 L 111.78125 277.617188 L 104.691406 261.019531 L 113.214844 257.011719 C 124.601562 260.660156 133.269531 245.992188 124.960938 237.691406 C 119.515625 231.539062 108.273438 233.6875 105.621094 241.558594 L 97.886719 245.207031 C 95.59375 239.839844 92.871094 233.972656 90.4375 228.820312 L 98.671875 224.957031 C 110.0625 228.605469 118.730469 213.9375 110.421875 205.636719 C 104.976562 199.484375 93.730469 201.632812 91.082031 209.503906 L 83.203125 213.222656 L 75.609375 196.910156 L 84.132812 192.832031 C 95.523438 196.480469 104.1875 181.8125 95.878906 173.511719 C 90.4375 167.359375 79.191406 169.503906 76.539062 177.375 L 68.304688 181.238281 C 66.441406 177.160156 62.644531 168.933594 60.78125 164.855469 L 69.59375 160.703125 C 80.980469 164.351562 89.648438 149.683594 81.339844 141.386719 C 75.894531 135.230469 64.648438 137.378906 62 145.25 L 53.691406 149.183594 C 51.757812 144.535156 48.820312 137.519531 46.671875 132.585938 L 54.980469 128.648438 C 66.367188 132.296875 75.035156 117.628906 66.726562 109.332031 C 61.285156 103.175781 50.039062 105.324219 47.386719 113.195312 L 39.792969 116.773438 L 37.503906 111.546875 C 36.5 109.902344 32.273438 103.320312 36.929688 100.027344 C 52.757812 90.15625 108.058594 64.394531 139.5 46.152344 C 156.765625 35.777344 202.464844 15.3125 203.035156 14.953125 C 204.109375 14.382812 216.289062 7.726562 221.160156 17.386719 C 230.757812 36.632812 237.273438 50.515625 248.449219 75.628906 C 262.988281 108.398438 313.488281 213.722656 325.304688 241.699219 C 327.8125 247.640625 330.25 252.789062 332.324219 257.296875 C 339.988281 273.183594 343.5 280.765625 334.476562 288.066406 Z M 334.476562 288.066406 " fill-opacity="1" fill-rule="evenodd"/><path fill="#ffffff" d="M 253.433594 140.878906 C 253.300781 140.675781 253.1875 140.457031 253.097656 140.230469 C 253.003906 140.003906 252.9375 139.769531 252.894531 139.527344 C 252.855469 139.285156 252.835938 139.042969 252.84375 138.796875 C 252.851562 138.554688 252.882812 138.3125 252.941406 138.074219 C 252.996094 137.835938 253.078125 137.605469 253.179688 137.382812 C 253.285156 137.160156 253.410156 136.953125 253.554688 136.757812 C 253.703125 136.5625 253.867188 136.382812 254.050781 136.21875 C 254.234375 136.058594 254.433594 135.917969 254.644531 135.792969 C 256.472656 134.832031 258.109375 134.039062 258.742188 134.59375 C 261.765625 137.382812 263.925781 140.730469 265.226562 144.636719 C 265.488281 145.410156 264.226562 146.789062 262.753906 148.3125 C 262.597656 148.476562 262.421875 148.625 262.230469 148.753906 C 262.039062 148.878906 261.832031 148.984375 261.617188 149.066406 C 261.402344 149.144531 261.179688 149.199219 260.949219 149.230469 C 260.722656 149.257812 260.492188 149.261719 260.261719 149.238281 C 260.035156 149.214844 259.8125 149.164062 259.59375 149.089844 C 259.375 149.015625 259.167969 148.914062 258.972656 148.792969 C 258.777344 148.667969 258.597656 148.527344 258.4375 148.363281 C 258.273438 148.199219 258.132812 148.019531 258.011719 147.820312 Z M 144.484375 228.734375 C 144.355469 228.527344 144.203125 228.339844 144.027344 228.167969 C 143.851562 228 143.660156 227.851562 143.449219 227.730469 C 143.238281 227.605469 143.015625 227.511719 142.78125 227.441406 C 142.550781 227.371094 142.3125 227.332031 142.066406 227.320312 C 141.824219 227.308594 141.582031 227.324219 141.34375 227.371094 C 141.105469 227.417969 140.875 227.492188 140.652344 227.59375 C 140.433594 227.699219 140.226562 227.824219 140.035156 227.976562 C 139.84375 228.128906 139.675781 228.300781 139.527344 228.496094 C 138.3125 230 137.339844 231.34375 137.628906 232.101562 C 139.152344 235.882812 141.433594 239.128906 144.472656 241.835938 C 144.949219 242.273438 146.351562 241.511719 147.917969 240.570312 C 148.324219 240.3125 148.660156 239.984375 148.933594 239.589844 C 149.207031 239.195312 149.394531 238.761719 149.492188 238.292969 C 149.59375 237.824219 149.597656 237.351562 149.507812 236.878906 C 149.421875 236.40625 149.246094 235.972656 148.980469 235.570312 Z M 161.886719 218.917969 C 158.613281 213.949219 155.339844 208.984375 152.058594 204.015625 C 146.542969 195.640625 146.542969 195.640625 138.972656 201.675781 C 134.546875 205.203125 134.179688 207.394531 137.316406 212.175781 C 143.679688 221.878906 150.234375 231.433594 156.421875 241.265625 C 163.820312 253.023438 164.347656 251.023438 173.8125 243.75 C 176.125 241.96875 176.199219 240.425781 174.523438 238.003906 C 170.207031 231.730469 166.085938 225.296875 161.886719 218.925781 Z M 264.300781 162.300781 C 258.007812 152.699219 251.535156 143.234375 245.394531 133.523438 C 238.136719 122.042969 237.570312 123.617188 227.929688 131.179688 C 227.695312 131.304688 227.476562 131.453125 227.277344 131.628906 C 227.078125 131.804688 226.902344 132.003906 226.75 132.21875 C 226.597656 132.4375 226.472656 132.671875 226.378906 132.917969 C 226.28125 133.167969 226.214844 133.421875 226.179688 133.6875 C 226.140625 133.949219 226.136719 134.214844 226.164062 134.480469 C 226.191406 134.742188 226.25 135 226.339844 135.253906 C 226.425781 135.503906 226.542969 135.738281 226.6875 135.964844 C 226.832031 136.1875 227.003906 136.390625 227.195312 136.570312 C 231.703125 143.117188 236 149.824219 240.378906 156.46875 L 249.980469 171.035156 C 255.3125 179.121094 255.3125 179.121094 262.785156 173.199219 C 267.398438 169.550781 267.714844 167.511719 264.300781 162.300781 Z M 180.625 205.699219 C 175.40625 197.785156 170.191406 189.875 164.972656 181.972656 C 158.453125 172.082031 158.453125 172.082031 149.300781 179.238281 C 144.070312 183.328125 143.808594 184.9375 147.59375 190.6875 C 158.429688 207.148438 169.277344 223.609375 180.136719 240.0625 C 187.207031 250.769531 187.34375 250.78125 197.152344 242.703125 C 201.144531 239.414062 201.464844 237.378906 198.519531 232.882812 C 192.582031 223.804688 186.617188 214.742188 180.625 205.699219 Z M 237.394531 158.128906 C 232.179688 150.214844 226.960938 142.304688 221.746094 134.40625 C 215.359375 124.730469 215.355469 124.730469 206.394531 131.730469 C 200.855469 136.0625 200.675781 137.285156 204.753906 143.472656 C 215.597656 159.9375 226.449219 176.386719 237.308594 192.828125 C 244.164062 203.214844 244.160156 203.21875 253.601562 195.71875 C 258.210938 192.058594 258.535156 190.242188 255.296875 185.300781 C 249.351562 176.226562 243.382812 167.167969 237.394531 158.128906 Z M 216.871094 169.585938 C 216.738281 169.371094 216.585938 169.171875 216.410156 168.988281 C 216.234375 168.804688 216.042969 168.644531 215.835938 168.5 C 215.628906 168.359375 215.40625 168.242188 215.171875 168.144531 C 214.941406 168.050781 214.699219 167.980469 214.449219 167.933594 C 214.203125 167.890625 213.953125 167.871094 213.699219 167.878906 C 213.449219 167.886719 213.199219 167.921875 212.953125 167.980469 C 212.710938 168.042969 212.472656 168.128906 212.246094 168.238281 C 212.019531 168.347656 211.808594 168.480469 211.609375 168.636719 L 181.257812 192.191406 C 180.84375 192.527344 180.507812 192.925781 180.246094 193.390625 C 179.980469 193.851562 179.808594 194.347656 179.730469 194.871094 C 179.648438 195.398438 179.664062 195.921875 179.777344 196.441406 C 179.890625 196.960938 180.09375 197.445312 180.382812 197.890625 L 184.109375 203.539062 C 184.242188 203.753906 184.394531 203.953125 184.570312 204.136719 C 184.742188 204.320312 184.933594 204.484375 185.140625 204.625 C 185.351562 204.765625 185.570312 204.886719 185.804688 204.980469 C 186.039062 205.078125 186.28125 205.148438 186.527344 205.191406 C 186.777344 205.238281 187.027344 205.257812 187.277344 205.246094 C 187.53125 205.238281 187.777344 205.207031 188.023438 205.144531 C 188.269531 205.085938 188.503906 205 188.730469 204.890625 C 188.957031 204.777344 189.171875 204.644531 189.371094 204.488281 L 219.722656 180.933594 C 220.132812 180.597656 220.46875 180.199219 220.734375 179.734375 C 220.996094 179.273438 221.167969 178.78125 221.25 178.253906 C 221.328125 177.726562 221.3125 177.203125 221.199219 176.683594 C 221.089844 176.164062 220.886719 175.683594 220.59375 175.238281 Z M 216.871094 169.585938 " fill-opacity="1" fill-rule="nonzero"/></svg>