<svg xmlns="http://www.w3.org/2000/svg" xmlns:xlink="http://www.w3.org/1999/xlink" width="500" zoomAndPan="magnify" viewBox="0 0 375 374.999991" height="500" preserveAspectRatio="xMidYMid meet" version="1.0"><defs><clipPath id="a0d0e7c6ab"><path d="M 117 43 L 258 43 L 258 332.910156 L 117 332.910156 Z M 117 43 " clip-rule="nonzero"/></clipPath><clipPath id="0c6f8d9e9d"><path d="M 217 131 L 373 131 L 373 332.910156 L 217 332.910156 Z M 217 131 " clip-rule="nonzero"/></clipPath><clipPath id="cce8861b83"><path d="M 2 131 L 156 131 L 156 332.910156 L 2 332.910156 Z M 2 131 " clip-rule="nonzero"/></clipPath></defs><g clip-path="url(#a0d0e7c6ab)"><path fill="#ffffff" d="M 189.785156 119.117188 L 189.785156 81.957031 C 196.707031 80.507812 203.796875 81.617188 211.253906 82.792969 C 216.359375 83.597656 221.558594 84.414062 226.855469 84.414062 C 230.988281 84.457031 235.03125 83.875 238.980469 82.660156 L 241.699219 81.804688 L 241.699219 43.398438 L 236.648438 44.988281 C 228.867188 47.4375 220.898438 46.183594 212.460938 44.855469 C 203.515625 43.449219 194.257812 41.992188 184.738281 44.988281 L 182.019531 45.84375 L 182.019531 119.425781 L 117.742188 184.433594 L 117.742188 332.800781 L 155.804688 332.800781 L 155.804688 275.277344 C 155.804688 257.996094 169.417969 243.457031 186.699219 243.046875 C 187.753906 243.023438 188.800781 243.050781 189.851562 243.132812 C 190.902344 243.210938 191.945312 243.34375 192.980469 243.53125 C 194.015625 243.714844 195.039062 243.949219 196.054688 244.234375 C 197.066406 244.523438 198.0625 244.859375 199.042969 245.242188 C 200.019531 245.628906 200.976562 246.0625 201.914062 246.542969 C 202.851562 247.023438 203.761719 247.550781 204.644531 248.121094 C 205.527344 248.691406 206.378906 249.308594 207.203125 249.964844 C 208.023438 250.621094 208.8125 251.316406 209.566406 252.050781 C 210.320312 252.785156 211.035156 253.554688 211.710938 254.363281 C 212.386719 255.167969 213.019531 256.003906 213.613281 256.875 C 214.207031 257.742188 214.753906 258.640625 215.257812 259.5625 C 215.761719 260.488281 216.21875 261.433594 216.628906 262.402344 C 217.035156 263.371094 217.394531 264.359375 217.707031 265.363281 C 218.019531 266.371094 218.277344 267.386719 218.488281 268.417969 C 218.695312 269.449219 218.855469 270.488281 218.960938 271.535156 C 219.066406 272.582031 219.117188 273.632812 219.121094 274.683594 L 219.121094 332.800781 L 257.179688 332.800781 L 257.179688 184.496094 Z M 187.460938 216.605469 C 186.339844 216.605469 185.21875 216.550781 184.097656 216.441406 C 182.980469 216.332031 181.871094 216.167969 180.769531 215.949219 C 179.664062 215.726562 178.578125 215.457031 177.5 215.128906 C 176.425781 214.804688 175.367188 214.425781 174.332031 213.996094 C 173.292969 213.566406 172.277344 213.085938 171.285156 212.554688 C 170.296875 212.027344 169.332031 211.449219 168.398438 210.824219 C 167.464844 210.203125 166.5625 209.535156 165.691406 208.820312 C 164.824219 208.109375 163.992188 207.355469 163.199219 206.558594 C 162.402344 205.765625 161.648438 204.933594 160.9375 204.066406 C 160.222656 203.199219 159.554688 202.296875 158.929688 201.363281 C 158.304688 200.429688 157.730469 199.464844 157.199219 198.476562 C 156.667969 197.484375 156.191406 196.46875 155.757812 195.433594 C 155.328125 194.394531 154.953125 193.339844 154.625 192.261719 C 154.296875 191.1875 154.027344 190.101562 153.808594 189 C 153.585938 187.894531 153.421875 186.785156 153.3125 185.667969 C 153.203125 184.550781 153.148438 183.429688 153.148438 182.304688 C 153.148438 181.183594 153.203125 180.0625 153.3125 178.945312 C 153.421875 177.828125 153.585938 176.714844 153.808594 175.613281 C 154.027344 174.511719 154.296875 173.425781 154.625 172.351562 C 154.953125 171.273438 155.328125 170.21875 155.757812 169.179688 C 156.191406 168.140625 156.667969 167.128906 157.199219 166.136719 C 157.730469 165.148438 158.304688 164.183594 158.929688 163.25 C 159.554688 162.316406 160.222656 161.414062 160.9375 160.546875 C 161.648438 159.679688 162.402344 158.847656 163.199219 158.050781 C 163.992188 157.257812 164.824219 156.503906 165.691406 155.792969 C 166.5625 155.078125 167.464844 154.410156 168.398438 153.785156 C 169.332031 153.164062 170.296875 152.585938 171.285156 152.054688 C 172.277344 151.527344 173.292969 151.046875 174.332031 150.617188 C 175.367188 150.1875 176.425781 149.808594 177.5 149.484375 C 178.578125 149.15625 179.664062 148.882812 180.765625 148.664062 C 181.871094 148.445312 182.980469 148.28125 184.097656 148.171875 C 185.21875 148.0625 186.339844 148.007812 187.460938 148.007812 C 188.585938 148.007812 189.707031 148.0625 190.824219 148.171875 C 191.945312 148.28125 193.054688 148.445312 194.15625 148.664062 C 195.257812 148.882812 196.347656 149.15625 197.421875 149.484375 C 198.5 149.808594 199.554688 150.1875 200.59375 150.617188 C 201.632812 151.046875 202.644531 151.527344 203.636719 152.054688 C 204.628906 152.585938 205.589844 153.164062 206.527344 153.785156 C 207.460938 154.410156 208.363281 155.078125 209.230469 155.792969 C 210.097656 156.503906 210.929688 157.257812 211.726562 158.050781 C 212.519531 158.847656 213.273438 159.679688 213.988281 160.546875 C 214.699219 161.414062 215.367188 162.316406 215.992188 163.25 C 216.617188 164.183594 217.195312 165.148438 217.722656 166.136719 C 218.253906 167.128906 218.734375 168.140625 219.164062 169.179688 C 219.59375 170.21875 219.972656 171.273438 220.296875 172.351562 C 220.625 173.425781 220.898438 174.511719 221.117188 175.613281 C 221.335938 176.714844 221.5 177.828125 221.609375 178.945312 C 221.722656 180.0625 221.777344 181.183594 221.777344 182.304688 C 221.773438 183.429688 221.71875 184.550781 221.609375 185.667969 C 221.496094 186.785156 221.332031 187.894531 221.109375 188.996094 C 220.890625 190.097656 220.617188 191.183594 220.289062 192.257812 C 219.964844 193.332031 219.585938 194.390625 219.152344 195.425781 C 218.722656 196.464844 218.242188 197.476562 217.714844 198.46875 C 217.183594 199.457031 216.605469 200.417969 215.980469 201.351562 C 215.355469 202.285156 214.6875 203.1875 213.976562 204.054688 C 213.261719 204.921875 212.507812 205.753906 211.714844 206.550781 C 210.921875 207.34375 210.089844 208.097656 209.21875 208.808594 C 208.351562 209.523438 207.449219 210.191406 206.515625 210.8125 C 205.582031 211.4375 204.621094 212.015625 203.628906 212.546875 C 202.640625 213.074219 201.625 213.554688 200.585938 213.984375 C 199.550781 214.414062 198.492188 214.792969 197.417969 215.121094 C 196.34375 215.449219 195.253906 215.722656 194.152344 215.941406 C 193.050781 216.160156 191.941406 216.328125 190.824219 216.4375 C 189.707031 216.550781 188.585938 216.605469 187.460938 216.605469 Z M 187.460938 216.605469 " fill-opacity="1" fill-rule="nonzero"/></g><path fill="#ffffff" d="M 187.460938 158.355469 C 186.675781 158.355469 185.894531 158.394531 185.113281 158.472656 C 184.332031 158.546875 183.558594 158.664062 182.789062 158.816406 C 182.019531 158.96875 181.257812 159.160156 180.507812 159.386719 C 179.753906 159.613281 179.019531 159.878906 178.292969 160.179688 C 177.566406 160.480469 176.859375 160.8125 176.167969 161.183594 C 175.476562 161.554688 174.800781 161.957031 174.148438 162.390625 C 173.496094 162.828125 172.867188 163.292969 172.261719 163.792969 C 171.65625 164.289062 171.074219 164.816406 170.519531 165.371094 C 169.964844 165.925781 169.4375 166.507812 168.941406 167.113281 C 168.441406 167.71875 167.976562 168.347656 167.539062 169 C 167.101562 169.652344 166.699219 170.324219 166.328125 171.015625 C 165.960938 171.707031 165.625 172.417969 165.324219 173.140625 C 165.023438 173.867188 164.761719 174.605469 164.53125 175.355469 C 164.304688 176.105469 164.113281 176.863281 163.960938 177.632812 C 163.808594 178.402344 163.691406 179.179688 163.617188 179.960938 C 163.539062 180.738281 163.5 181.523438 163.5 182.308594 C 163.5 183.089844 163.539062 183.875 163.617188 184.65625 C 163.691406 185.433594 163.808594 186.210938 163.960938 186.980469 C 164.113281 187.75 164.304688 188.507812 164.53125 189.257812 C 164.761719 190.011719 165.023438 190.746094 165.324219 191.472656 C 165.625 192.199219 165.960938 192.90625 166.328125 193.597656 C 166.699219 194.289062 167.101562 194.960938 167.539062 195.613281 C 167.976562 196.265625 168.441406 196.894531 168.9375 197.5 C 169.4375 198.109375 169.964844 198.6875 170.519531 199.242188 C 171.074219 199.796875 171.652344 200.324219 172.261719 200.820312 C 172.867188 201.320312 173.496094 201.785156 174.148438 202.222656 C 174.800781 202.65625 175.472656 203.058594 176.167969 203.429688 C 176.859375 203.800781 177.566406 204.136719 178.292969 204.433594 C 179.015625 204.734375 179.753906 205 180.507812 205.226562 C 181.257812 205.453125 182.015625 205.644531 182.789062 205.796875 C 183.558594 205.949219 184.332031 206.066406 185.113281 206.144531 C 185.894531 206.21875 186.675781 206.257812 187.460938 206.257812 C 188.246094 206.257812 189.03125 206.21875 189.808594 206.144531 C 190.589844 206.066406 191.367188 205.949219 192.136719 205.796875 C 192.90625 205.644531 193.667969 205.453125 194.417969 205.226562 C 195.167969 205 195.90625 204.734375 196.632812 204.433594 C 197.355469 204.136719 198.066406 203.800781 198.757812 203.429688 C 199.449219 203.058594 200.121094 202.65625 200.773438 202.222656 C 201.425781 201.785156 202.054688 201.320312 202.664062 200.820312 C 203.269531 200.324219 203.851562 199.796875 204.40625 199.242188 C 204.960938 198.6875 205.488281 198.109375 205.984375 197.5 C 206.480469 196.894531 206.949219 196.265625 207.386719 195.613281 C 207.820312 194.960938 208.222656 194.289062 208.59375 193.597656 C 208.964844 192.90625 209.300781 192.195312 209.597656 191.472656 C 209.898438 190.746094 210.164062 190.011719 210.390625 189.257812 C 210.621094 188.507812 210.808594 187.75 210.960938 186.980469 C 211.117188 186.210938 211.230469 185.433594 211.308594 184.652344 C 211.382812 183.875 211.421875 183.089844 211.421875 182.304688 C 211.421875 181.523438 211.382812 180.738281 211.304688 179.960938 C 211.226562 179.179688 211.113281 178.40625 210.957031 177.636719 C 210.804688 176.867188 210.613281 176.105469 210.386719 175.355469 C 210.15625 174.605469 209.890625 173.871094 209.59375 173.144531 C 209.292969 172.421875 208.957031 171.714844 208.585938 171.023438 C 208.214844 170.332031 207.8125 169.660156 207.375 169.007812 C 206.941406 168.355469 206.472656 167.726562 205.976562 167.121094 C 205.476562 166.511719 204.953125 165.933594 204.398438 165.378906 C 203.84375 164.824219 203.261719 164.296875 202.65625 163.800781 C 202.050781 163.304688 201.421875 162.835938 200.769531 162.402344 C 200.117188 161.964844 199.445312 161.5625 198.753906 161.191406 C 198.058594 160.820312 197.351562 160.488281 196.628906 160.1875 C 195.902344 159.886719 195.164062 159.621094 194.414062 159.394531 C 193.664062 159.164062 192.902344 158.972656 192.136719 158.820312 C 191.367188 158.667969 190.589844 158.550781 189.808594 158.472656 C 189.03125 158.394531 188.246094 158.355469 187.460938 158.355469 Z M 201.328125 185.753906 L 187.460938 185.753906 C 187.003906 185.753906 186.566406 185.667969 186.140625 185.492188 C 185.71875 185.316406 185.347656 185.066406 185.023438 184.742188 C 184.699219 184.421875 184.449219 184.046875 184.273438 183.625 C 184.097656 183.203125 184.011719 182.761719 184.011719 182.304688 L 184.011719 168.449219 C 184.011719 167.988281 184.097656 167.550781 184.273438 167.128906 C 184.449219 166.703125 184.699219 166.332031 185.023438 166.007812 C 185.34375 165.683594 185.71875 165.4375 186.140625 165.261719 C 186.5625 165.085938 187.003906 164.996094 187.460938 164.996094 C 187.921875 164.996094 188.359375 165.085938 188.78125 165.261719 C 189.207031 165.4375 189.578125 165.683594 189.902344 166.007812 C 190.226562 166.332031 190.476562 166.703125 190.652344 167.128906 C 190.824219 167.550781 190.914062 167.988281 190.914062 168.449219 L 190.914062 178.855469 L 201.328125 178.855469 C 201.785156 178.855469 202.226562 178.945312 202.648438 179.121094 C 203.070312 179.292969 203.445312 179.542969 203.769531 179.867188 C 204.089844 180.191406 204.339844 180.5625 204.515625 180.988281 C 204.691406 181.410156 204.777344 181.847656 204.777344 182.304688 C 204.777344 182.765625 204.691406 183.203125 204.515625 183.625 C 204.339844 184.050781 204.089844 184.421875 203.769531 184.746094 C 203.445312 185.070312 203.070312 185.320312 202.648438 185.492188 C 202.226562 185.667969 201.785156 185.757812 201.328125 185.757812 Z M 201.328125 185.753906 " fill-opacity="1" fill-rule="nonzero"/><g clip-path="url(#0c6f8d9e9d)"><path fill="#ffffff" d="M 367.613281 322.449219 L 349.367188 322.449219 L 349.367188 187.484375 L 366.347656 187.484375 C 366.6875 187.484375 367.023438 187.449219 367.355469 187.382812 C 367.691406 187.316406 368.015625 187.21875 368.328125 187.089844 C 368.640625 186.960938 368.941406 186.800781 369.222656 186.613281 C 369.503906 186.421875 369.765625 186.207031 370.007812 185.96875 C 370.246094 185.726562 370.460938 185.464844 370.652344 185.183594 C 370.839844 184.902344 371 184.601562 371.128906 184.289062 C 371.257812 183.976562 371.359375 183.652344 371.421875 183.320312 C 371.488281 182.984375 371.523438 182.648438 371.523438 182.308594 L 371.523438 170.960938 C 371.523438 170.21875 371.371094 169.507812 371.0625 168.828125 C 370.757812 168.152344 370.324219 167.566406 369.765625 167.078125 L 330.3125 132.390625 C 329.335938 131.53125 328.195312 131.097656 326.894531 131.097656 L 217.003906 131.097656 L 264.457031 177.132812 L 265.960938 178.589844 C 266.464844 179.078125 266.851562 179.644531 267.125 180.289062 C 267.398438 180.933594 267.535156 181.605469 267.535156 182.304688 L 267.535156 332.800781 L 367.613281 332.800781 C 367.957031 332.804688 368.296875 332.773438 368.632812 332.707031 C 368.96875 332.644531 369.292969 332.550781 369.609375 332.421875 C 369.929688 332.292969 370.230469 332.132812 370.515625 331.945312 C 370.800781 331.757812 371.066406 331.542969 371.308594 331.300781 C 371.550781 331.0625 371.769531 330.800781 371.960938 330.515625 C 372.148438 330.230469 372.3125 329.933594 372.445312 329.617188 C 372.574219 329.300781 372.675781 328.976562 372.742188 328.640625 C 372.808594 328.304688 372.84375 327.96875 372.84375 327.625 C 372.84375 327.28125 372.808594 326.945312 372.742188 326.609375 C 372.675781 326.273438 372.574219 325.949219 372.445312 325.632812 C 372.3125 325.316406 372.148438 325.019531 371.960938 324.734375 C 371.769531 324.449219 371.550781 324.1875 371.308594 323.949219 C 371.066406 323.707031 370.800781 323.492188 370.515625 323.304688 C 370.230469 323.117188 369.929688 322.957031 369.609375 322.828125 C 369.292969 322.699219 368.96875 322.605469 368.632812 322.542969 C 368.296875 322.476562 367.957031 322.445312 367.613281 322.449219 Z M 322.371094 292.21875 C 322.371094 292.558594 322.335938 292.894531 322.269531 293.226562 C 322.203125 293.558594 322.105469 293.882812 321.976562 294.199219 C 321.847656 294.511719 321.6875 294.808594 321.496094 295.09375 C 321.308594 295.375 321.09375 295.636719 320.851562 295.875 C 320.613281 296.117188 320.351562 296.332031 320.070312 296.519531 C 319.785156 296.707031 319.488281 296.867188 319.171875 296.996094 C 318.859375 297.128906 318.535156 297.226562 318.203125 297.292969 C 317.867188 297.359375 317.53125 297.390625 317.191406 297.390625 L 290.710938 297.390625 C 290.371094 297.390625 290.035156 297.359375 289.703125 297.292969 C 289.367188 297.226562 289.046875 297.128906 288.730469 296.996094 C 288.417969 296.867188 288.117188 296.707031 287.835938 296.519531 C 287.554688 296.332031 287.292969 296.117188 287.050781 295.875 C 286.8125 295.636719 286.597656 295.375 286.40625 295.089844 C 286.21875 294.808594 286.058594 294.511719 285.929688 294.195312 C 285.800781 293.882812 285.703125 293.558594 285.636719 293.226562 C 285.570312 292.894531 285.535156 292.554688 285.535156 292.214844 L 285.535156 265.746094 C 285.535156 265.40625 285.570312 265.070312 285.636719 264.738281 C 285.703125 264.402344 285.800781 264.078125 285.929688 263.765625 C 286.058594 263.453125 286.21875 263.152344 286.40625 262.871094 C 286.597656 262.589844 286.8125 262.328125 287.050781 262.085938 C 287.292969 261.847656 287.554688 261.632812 287.835938 261.445312 C 288.117188 261.253906 288.417969 261.09375 288.730469 260.964844 C 289.046875 260.835938 289.367188 260.738281 289.703125 260.671875 C 290.035156 260.605469 290.371094 260.570312 290.710938 260.570312 L 317.191406 260.570312 C 317.53125 260.570312 317.867188 260.605469 318.203125 260.671875 C 318.535156 260.738281 318.859375 260.835938 319.171875 260.964844 C 319.488281 261.09375 319.785156 261.253906 320.066406 261.445312 C 320.351562 261.632812 320.613281 261.847656 320.851562 262.085938 C 321.09375 262.328125 321.308594 262.589844 321.496094 262.871094 C 321.683594 263.152344 321.84375 263.453125 321.972656 263.765625 C 322.105469 264.078125 322.203125 264.402344 322.269531 264.738281 C 322.335938 265.070312 322.367188 265.40625 322.367188 265.746094 Z M 322.371094 243.492188 C 322.371094 243.832031 322.335938 244.167969 322.269531 244.5 C 322.203125 244.835938 322.105469 245.15625 321.976562 245.472656 C 321.847656 245.785156 321.6875 246.085938 321.496094 246.367188 C 321.308594 246.648438 321.09375 246.910156 320.851562 247.152344 C 320.613281 247.390625 320.351562 247.605469 320.070312 247.792969 C 319.785156 247.984375 319.488281 248.140625 319.171875 248.273438 C 318.859375 248.402344 318.535156 248.5 318.203125 248.566406 C 317.867188 248.632812 317.53125 248.664062 317.191406 248.664062 L 290.710938 248.664062 C 290.371094 248.664062 290.035156 248.632812 289.703125 248.566406 C 289.367188 248.5 289.046875 248.402344 288.730469 248.269531 C 288.417969 248.140625 288.117188 247.980469 287.835938 247.792969 C 287.554688 247.605469 287.292969 247.390625 287.050781 247.148438 C 286.8125 246.910156 286.597656 246.648438 286.410156 246.367188 C 286.21875 246.082031 286.058594 245.785156 285.929688 245.472656 C 285.800781 245.15625 285.703125 244.832031 285.636719 244.5 C 285.570312 244.167969 285.535156 243.832031 285.535156 243.492188 L 285.535156 217.019531 C 285.535156 216.679688 285.570312 216.34375 285.636719 216.011719 C 285.703125 215.675781 285.800781 215.355469 285.929688 215.039062 C 286.058594 214.726562 286.21875 214.429688 286.40625 214.144531 C 286.597656 213.863281 286.8125 213.601562 287.050781 213.359375 C 287.292969 213.121094 287.554688 212.90625 287.835938 212.71875 C 288.117188 212.527344 288.417969 212.371094 288.730469 212.238281 C 289.046875 212.109375 289.367188 212.011719 289.703125 211.945312 C 290.035156 211.878906 290.371094 211.84375 290.710938 211.84375 L 317.191406 211.84375 C 317.53125 211.84375 317.867188 211.878906 318.203125 211.945312 C 318.535156 212.011719 318.859375 212.109375 319.171875 212.238281 C 319.488281 212.371094 319.785156 212.527344 320.066406 212.71875 C 320.351562 212.90625 320.613281 213.121094 320.851562 213.359375 C 321.09375 213.601562 321.308594 213.863281 321.496094 214.144531 C 321.683594 214.429688 321.84375 214.726562 321.972656 215.039062 C 322.105469 215.355469 322.203125 215.675781 322.269531 216.011719 C 322.335938 216.34375 322.367188 216.679688 322.367188 217.019531 Z M 322.371094 243.492188 " fill-opacity="1" fill-rule="nonzero"/></g><g clip-path="url(#cce8861b83)"><path fill="#ffffff" d="M 155.921875 131.097656 L 48.027344 131.097656 C 46.726562 131.101562 45.585938 131.53125 44.609375 132.390625 L 5.15625 167.078125 C 4.597656 167.566406 4.167969 168.152344 3.859375 168.828125 C 3.554688 169.507812 3.398438 170.21875 3.398438 170.960938 L 3.398438 182.304688 C 3.398438 182.644531 3.433594 182.984375 3.5 183.316406 C 3.566406 183.648438 3.664062 183.972656 3.792969 184.289062 C 3.921875 184.601562 4.082031 184.898438 4.273438 185.183594 C 4.460938 185.464844 4.675781 185.726562 4.914062 185.96875 C 5.15625 186.207031 5.417969 186.421875 5.699219 186.609375 C 5.980469 186.800781 6.28125 186.960938 6.59375 187.089844 C 6.910156 187.21875 7.234375 187.316406 7.566406 187.382812 C 7.898438 187.449219 8.238281 187.484375 8.578125 187.484375 L 25.558594 187.484375 L 25.558594 322.449219 L 7.3125 322.449219 C 6.96875 322.445312 6.628906 322.476562 6.292969 322.542969 C 5.957031 322.605469 5.632812 322.699219 5.3125 322.828125 C 4.996094 322.957031 4.695312 323.117188 4.410156 323.304688 C 4.125 323.492188 3.859375 323.707031 3.617188 323.949219 C 3.375 324.1875 3.15625 324.449219 2.964844 324.734375 C 2.773438 325.019531 2.613281 325.316406 2.480469 325.632812 C 2.351562 325.949219 2.25 326.273438 2.183594 326.609375 C 2.117188 326.945312 2.082031 327.28125 2.082031 327.625 C 2.082031 327.96875 2.117188 328.304688 2.183594 328.640625 C 2.25 328.976562 2.351562 329.300781 2.480469 329.617188 C 2.613281 329.933594 2.773438 330.230469 2.964844 330.515625 C 3.15625 330.800781 3.375 331.0625 3.617188 331.300781 C 3.859375 331.542969 4.125 331.757812 4.410156 331.945312 C 4.695312 332.132812 4.996094 332.292969 5.3125 332.421875 C 5.632812 332.550781 5.957031 332.644531 6.292969 332.707031 C 6.628906 332.773438 6.96875 332.804688 7.3125 332.800781 L 107.390625 332.800781 L 107.390625 182.304688 C 107.390625 181.625 107.519531 180.96875 107.777344 180.339844 C 108.039062 179.710938 108.40625 179.152344 108.886719 178.667969 L 110.40625 177.132812 Z M 89.390625 292.214844 C 89.390625 292.554688 89.355469 292.894531 89.289062 293.226562 C 89.222656 293.558594 89.125 293.882812 88.996094 294.195312 C 88.867188 294.511719 88.707031 294.808594 88.515625 295.089844 C 88.328125 295.375 88.113281 295.636719 87.875 295.875 C 87.632812 296.117188 87.371094 296.332031 87.089844 296.519531 C 86.804688 296.707031 86.507812 296.867188 86.195312 296.996094 C 85.878906 297.128906 85.554688 297.226562 85.222656 297.292969 C 84.890625 297.359375 84.550781 297.390625 84.210938 297.390625 L 57.730469 297.390625 C 57.390625 297.390625 57.054688 297.359375 56.722656 297.292969 C 56.390625 297.226562 56.066406 297.128906 55.75 296.996094 C 55.4375 296.867188 55.140625 296.707031 54.855469 296.519531 C 54.574219 296.332031 54.3125 296.117188 54.070312 295.875 C 53.832031 295.636719 53.617188 295.375 53.429688 295.089844 C 53.238281 294.808594 53.078125 294.511719 52.949219 294.195312 C 52.820312 293.882812 52.722656 293.558594 52.65625 293.226562 C 52.589844 292.894531 52.554688 292.554688 52.554688 292.214844 L 52.554688 265.746094 C 52.554688 265.40625 52.589844 265.070312 52.65625 264.738281 C 52.722656 264.402344 52.820312 264.078125 52.949219 263.765625 C 53.082031 263.453125 53.238281 263.152344 53.429688 262.871094 C 53.617188 262.589844 53.832031 262.328125 54.070312 262.085938 C 54.3125 261.847656 54.574219 261.632812 54.855469 261.445312 C 55.140625 261.253906 55.4375 261.09375 55.75 260.964844 C 56.066406 260.835938 56.390625 260.738281 56.722656 260.671875 C 57.054688 260.605469 57.390625 260.570312 57.730469 260.570312 L 84.214844 260.570312 C 84.554688 260.570312 84.890625 260.605469 85.222656 260.671875 C 85.558594 260.738281 85.878906 260.835938 86.195312 260.964844 C 86.507812 261.09375 86.808594 261.253906 87.089844 261.445312 C 87.371094 261.632812 87.632812 261.847656 87.875 262.085938 C 88.113281 262.328125 88.328125 262.589844 88.519531 262.871094 C 88.707031 263.152344 88.867188 263.453125 88.996094 263.765625 C 89.125 264.078125 89.226562 264.402344 89.289062 264.734375 C 89.355469 265.070312 89.390625 265.40625 89.390625 265.746094 Z M 89.390625 243.492188 C 89.390625 243.832031 89.355469 244.167969 89.289062 244.5 C 89.222656 244.832031 89.125 245.15625 88.996094 245.472656 C 88.863281 245.785156 88.707031 246.082031 88.515625 246.367188 C 88.328125 246.648438 88.113281 246.910156 87.875 247.148438 C 87.632812 247.390625 87.371094 247.605469 87.089844 247.792969 C 86.804688 247.980469 86.507812 248.140625 86.195312 248.269531 C 85.878906 248.402344 85.554688 248.5 85.222656 248.566406 C 84.890625 248.632812 84.550781 248.664062 84.210938 248.664062 L 57.730469 248.664062 C 57.390625 248.664062 57.054688 248.632812 56.722656 248.566406 C 56.390625 248.5 56.066406 248.402344 55.75 248.269531 C 55.4375 248.140625 55.140625 247.980469 54.855469 247.792969 C 54.574219 247.605469 54.3125 247.390625 54.070312 247.148438 C 53.832031 246.910156 53.617188 246.648438 53.429688 246.367188 C 53.238281 246.082031 53.082031 245.785156 52.949219 245.472656 C 52.820312 245.15625 52.722656 244.832031 52.65625 244.5 C 52.589844 244.167969 52.554688 243.832031 52.554688 243.492188 L 52.554688 217.019531 C 52.554688 216.679688 52.589844 216.34375 52.65625 216.011719 C 52.722656 215.675781 52.820312 215.355469 52.949219 215.039062 C 53.078125 214.726562 53.238281 214.429688 53.429688 214.144531 C 53.617188 213.863281 53.832031 213.601562 54.070312 213.359375 C 54.3125 213.121094 54.574219 212.90625 54.855469 212.71875 C 55.140625 212.527344 55.4375 212.371094 55.75 212.238281 C 56.066406 212.109375 56.390625 212.011719 56.722656 211.945312 C 57.054688 211.878906 57.390625 211.84375 57.730469 211.84375 L 84.214844 211.84375 C 84.554688 211.84375 84.890625 211.878906 85.222656 211.945312 C 85.558594 212.011719 85.878906 212.109375 86.195312 212.238281 C 86.507812 212.371094 86.808594 212.527344 87.089844 212.71875 C 87.371094 212.90625 87.632812 213.121094 87.875 213.359375 C 88.113281 213.601562 88.328125 213.863281 88.519531 214.144531 C 88.707031 214.429688 88.867188 214.726562 88.996094 215.039062 C 89.125 215.355469 89.226562 215.675781 89.289062 216.011719 C 89.355469 216.34375 89.390625 216.679688 89.390625 217.019531 Z M 89.390625 243.492188 " fill-opacity="1" fill-rule="nonzero"/></g></svg>