<svg xmlns="http://www.w3.org/2000/svg" xmlns:xlink="http://www.w3.org/1999/xlink" width="500" zoomAndPan="magnify" viewBox="0 0 375 374.999991" height="500" preserveAspectRatio="xMidYMid meet" version="1.0"><defs><clipPath id="d0309b6f85"><path d="M 7 18.140625 L 368 18.140625 L 368 357 L 7 357 Z M 7 18.140625 " clip-rule="nonzero"/></clipPath></defs><g clip-path="url(#d0309b6f85)"><path fill="#ffffff" d="M 357.671875 266.152344 C 312.234375 258.660156 291.472656 211.59375 290.800781 210.0625 C 290.707031 209.789062 290.496094 209.300781 290.371094 209.023438 C 288.996094 206.273438 287.621094 202.386719 288.78125 199.636719 C 290.769531 194.925781 300.21875 191.929688 305.875 190.125 C 307.863281 189.480469 309.757812 188.902344 311.226562 188.320312 C 324.957031 182.875 331.804688 175.78125 331.652344 167.15625 C 331.53125 160.214844 326.210938 153.855469 318.382812 151.101562 C 315.660156 149.9375 312.542969 149.359375 309.390625 149.359375 C 307.25 149.359375 304.011719 149.664062 300.890625 151.101562 C 295.664062 153.546875 291.074219 154.863281 287.804688 155.015625 C 287.101562 154.984375 286.488281 154.925781 285.96875 154.832031 L 286.304688 149.449219 C 287.835938 125.105469 289.761719 94.769531 281.535156 76.328125 C 257.257812 21.980469 205.824219 17.761719 190.628906 17.761719 L 183.71875 17.824219 C 168.550781 17.824219 117.210938 22.042969 92.992188 76.359375 C 84.769531 94.800781 86.664062 125.105469 88.222656 149.480469 L 88.285156 150.398438 C 88.375 151.894531 88.46875 153.394531 88.558594 154.832031 C 85.164062 155.445312 78.53125 154.3125 71.648438 151.101562 C 62.292969 146.726562 45.445312 152.507812 43.121094 164.742188 C 42.082031 170.152344 43.335938 180.429688 63.273438 188.289062 C 64.769531 188.902344 66.636719 189.480469 68.652344 190.125 C 74.28125 191.929688 83.726562 194.894531 85.714844 199.636719 C 86.878906 202.386719 85.5 206.273438 83.882812 209.605469 C 83.023438 211.59375 62.386719 258.660156 16.855469 266.152344 C 11.042969 267.101562 6.917969 272.238281 7.222656 278.171875 C 7.3125 279.730469 7.710938 281.289062 8.355469 282.820312 C 12.480469 292.515625 27.496094 299.179688 55.503906 303.738281 C 55.992188 305.390625 56.542969 307.835938 56.851562 309.183594 C 57.429688 311.964844 58.074219 314.777344 58.929688 317.714844 C 59.753906 320.496094 62.597656 326.949219 71.464844 326.949219 C 74.15625 326.949219 77.09375 326.367188 80.242188 325.757812 C 84.890625 324.839844 90.699219 323.707031 98.160156 323.707031 C 102.320312 323.707031 106.601562 324.074219 110.910156 324.777344 C 118.863281 326.09375 126.046875 331.199219 134.394531 337.074219 C 147.421875 346.308594 162.191406 356.738281 185.09375 356.738281 C 185.703125 356.738281 186.316406 356.707031 186.898438 356.675781 C 187.722656 356.707031 188.578125 356.738281 189.433594 356.738281 C 212.339844 356.738281 227.105469 346.277344 240.164062 337.074219 C 248.113281 331.414062 255.636719 326.125 263.617188 324.777344 C 267.929688 324.074219 272.210938 323.707031 276.367188 323.707031 C 283.554688 323.707031 289.242188 324.625 294.316406 325.636719 C 297.925781 326.339844 300.800781 326.675781 303.460938 326.675781 C 309.390625 326.675781 313.949219 323.28125 315.597656 317.59375 C 316.453125 314.71875 317.066406 311.933594 317.679688 309.121094 C 317.921875 308.082031 318.503906 305.449219 319.023438 303.707031 C 347.03125 299.152344 362.046875 292.484375 366.144531 282.882812 C 366.816406 281.351562 367.183594 279.761719 367.304688 278.109375 C 367.613281 272.269531 363.484375 267.132812 357.671875 266.152344 Z M 357.671875 266.152344 " fill-opacity="1" fill-rule="nonzero"/></g></svg>