<svg xmlns="http://www.w3.org/2000/svg" xmlns:xlink="http://www.w3.org/1999/xlink" width="500" zoomAndPan="magnify" viewBox="0 0 375 374.999991" height="500" preserveAspectRatio="xMidYMid meet" version="1.0"><path fill="#ffffff" d="M 210.535156 28.273438 L 246.269531 100.628906 C 250.011719 108.207031 257.246094 113.457031 265.609375 114.667969 L 345.515625 126.273438 C 366.585938 129.335938 375 155.203125 359.75 170.054688 L 301.929688 226.371094 C 295.875 232.265625 293.113281 240.765625 294.546875 249.09375 L 308.191406 328.617188 C 311.792969 349.589844 289.765625 365.578125 270.921875 355.679688 L 199.457031 318.132812 C 191.976562 314.203125 183.03125 314.203125 175.550781 318.132812 L 104.085938 355.679688 C 85.242188 365.578125 63.214844 349.589844 66.8125 328.617188 L 80.460938 249.09375 C 81.894531 240.765625 79.125 232.273438 73.078125 226.371094 L 15.25 170.046875 C 0.0078125 155.203125 8.414062 129.328125 29.484375 126.265625 L 109.390625 114.660156 C 117.753906 113.445312 124.988281 108.191406 128.730469 100.621094 L 164.472656 28.273438 C 173.898438 9.191406 201.117188 9.191406 210.542969 28.273438 Z M 210.535156 28.273438 " fill-opacity="1" fill-rule="nonzero"/><path fill="#ffffff" d="M 92.097656 361.738281 C 86.152344 361.738281 80.253906 359.875 75.207031 356.210938 C 66.28125 349.730469 61.894531 338.957031 63.757812 328.085938 L 77.40625 248.558594 C 78.667969 241.230469 76.230469 233.765625 70.902344 228.574219 L 13.089844 172.265625 C 5.1875 164.566406 2.398438 153.273438 5.8125 142.789062 C 9.21875 132.300781 18.121094 124.796875 29.046875 123.210938 L 108.953125 111.613281 C 116.316406 110.535156 122.675781 105.925781 125.960938 99.257812 L 161.695312 26.902344 C 166.578125 17.015625 176.464844 10.867188 187.5 10.867188 C 198.535156 10.867188 208.429688 17.015625 213.3125 26.902344 L 249.046875 99.257812 C 252.332031 105.925781 258.691406 110.535156 266.054688 111.613281 L 345.960938 123.210938 C 356.882812 124.796875 365.78125 132.300781 369.195312 142.789062 C 372.601562 153.273438 369.8125 164.566406 361.910156 172.265625 L 304.089844 228.582031 C 298.761719 233.765625 296.332031 241.238281 297.59375 248.566406 L 311.242188 328.09375 C 313.105469 338.957031 308.71875 349.738281 299.792969 356.21875 C 290.863281 362.703125 279.25 363.546875 269.484375 358.40625 L 198.015625 320.863281 C 191.433594 317.40625 183.574219 317.40625 176.992188 320.863281 L 105.523438 358.40625 C 101.277344 360.640625 96.675781 361.746094 92.105469 361.746094 Z M 187.5 17.054688 C 178.707031 17.054688 171.128906 21.761719 167.238281 29.636719 L 131.507812 101.992188 C 127.3125 110.484375 119.207031 116.367188 109.835938 117.730469 L 29.929688 129.328125 C 21.226562 130.597656 14.414062 136.335938 11.6875 144.695312 C 8.972656 153.050781 11.109375 161.699219 17.410156 167.839844 L 75.230469 224.152344 C 82.011719 230.761719 85.109375 240.273438 83.511719 249.609375 L 69.863281 329.136719 C 68.378906 337.800781 71.734375 346.054688 78.851562 351.222656 C 85.96875 356.390625 94.859375 357.027344 102.644531 352.941406 L 174.113281 315.394531 C 182.496094 310.984375 192.515625 310.984375 200.894531 315.394531 L 272.363281 352.941406 C 280.148438 357.027344 289.039062 356.390625 296.15625 351.222656 C 303.273438 346.054688 306.628906 337.800781 305.144531 329.136719 L 291.496094 249.609375 C 289.890625 240.273438 292.988281 230.761719 299.769531 224.152344 L 357.589844 167.839844 C 363.890625 161.707031 366.027344 153.050781 363.304688 144.695312 C 360.585938 136.335938 353.765625 130.589844 345.0625 129.328125 L 265.15625 117.730469 C 255.777344 116.367188 247.679688 110.484375 243.488281 101.992188 L 207.753906 29.636719 C 203.863281 21.753906 196.285156 17.054688 187.492188 17.054688 Z M 187.5 17.054688 " fill-opacity="1" fill-rule="nonzero"/></svg>