<svg xmlns="http://www.w3.org/2000/svg" xmlns:xlink="http://www.w3.org/1999/xlink" width="500" zoomAndPan="magnify" viewBox="0 0 375 374.999991" height="500" preserveAspectRatio="xMidYMid meet" version="1.0"><defs><clipPath id="26f520fa65"><path d="M 44 8.882812 L 336 8.882812 L 336 354 L 44 354 Z M 44 8.882812 " clip-rule="nonzero"/></clipPath></defs><g clip-path="url(#26f520fa65)"><path fill="#ffffff" d="M 307.417969 122.910156 C 308.332031 122.265625 309 121.429688 309.425781 120.402344 C 310.199219 118.566406 310.820312 116.679688 311.292969 114.746094 C 311.765625 112.808594 312.082031 110.851562 312.246094 108.867188 C 312.40625 106.878906 312.410156 104.894531 312.257812 102.910156 C 312.105469 100.925781 311.796875 98.960938 311.332031 97.027344 C 310.867188 95.089844 310.25 93.203125 309.484375 91.363281 C 308.722656 89.523438 307.816406 87.757812 306.773438 86.0625 C 305.726562 84.367188 304.554688 82.765625 303.253906 81.253906 C 301.957031 79.746094 300.546875 78.347656 299.023438 77.0625 C 297.421875 75.828125 295.730469 74.730469 293.953125 73.765625 C 292.175781 72.804688 290.328125 71.988281 288.417969 71.324219 C 286.507812 70.660156 284.558594 70.152344 282.566406 69.800781 C 280.574219 69.453125 278.566406 69.265625 276.542969 69.238281 C 274.523438 69.214844 272.511719 69.351562 270.511719 69.648438 C 268.507812 69.949219 266.546875 70.40625 264.621094 71.023438 C 262.695312 71.640625 260.828125 72.40625 259.027344 73.324219 C 257.222656 74.238281 255.507812 75.296875 253.875 76.492188 C 253.527344 76.753906 253.207031 77.050781 252.917969 77.378906 C 238.433594 70.371094 223.203125 65.917969 207.222656 64.023438 L 207.222656 41.871094 L 224.4375 41.871094 C 224.890625 41.871094 225.339844 41.820312 225.785156 41.714844 C 226.226562 41.613281 226.652344 41.460938 227.0625 41.257812 C 227.46875 41.054688 227.847656 40.808594 228.199219 40.519531 C 228.546875 40.226562 228.859375 39.902344 229.136719 39.539062 C 229.410156 39.171875 229.636719 38.785156 229.820312 38.367188 C 230.003906 37.949219 230.136719 37.519531 230.222656 37.070312 C 230.304688 36.621094 230.332031 36.171875 230.3125 35.71875 C 230.289062 35.261719 230.214844 34.816406 230.089844 34.378906 C 230.335938 33.726562 230.460938 33.050781 230.464844 32.355469 L 230.464844 14.917969 C 230.460938 14.523438 230.421875 14.132812 230.339844 13.746094 C 230.261719 13.359375 230.144531 12.980469 229.992188 12.617188 C 229.839844 12.253906 229.652344 11.90625 229.429688 11.582031 C 229.210938 11.253906 228.960938 10.949219 228.683594 10.667969 C 228.402344 10.390625 228.101562 10.140625 227.773438 9.917969 C 227.445312 9.699219 227.097656 9.511719 226.734375 9.359375 C 226.371094 9.207031 225.996094 9.089844 225.609375 9.007812 C 225.222656 8.929688 224.832031 8.886719 224.4375 8.882812 C 223.675781 8.917969 222.945312 9.082031 222.242188 9.371094 C 221.464844 9.039062 220.65625 8.878906 219.808594 8.882812 L 158.1875 8.882812 C 157.214844 8.84375 156.300781 9.050781 155.4375 9.503906 C 154.578125 9.957031 153.886719 10.59375 153.367188 11.414062 C 152.703125 11.5625 152.085938 11.820312 151.507812 12.179688 C 150.933594 12.539062 150.433594 12.980469 150.003906 13.511719 C 149.578125 14.039062 149.25 14.621094 149.023438 15.261719 C 148.792969 15.902344 148.675781 16.558594 148.667969 17.238281 L 148.667969 34.675781 C 148.679688 35.191406 148.757812 35.695312 148.902344 36.1875 C 148.902344 36.5625 148.9375 36.9375 149.007812 37.308594 C 149.078125 37.679688 149.1875 38.039062 149.332031 38.390625 C 149.476562 38.738281 149.65625 39.070312 149.867188 39.382812 C 150.078125 39.695312 150.316406 39.984375 150.585938 40.25 C 150.855469 40.515625 151.148438 40.75 151.464844 40.957031 C 151.78125 41.164062 152.117188 41.335938 152.46875 41.476562 C 152.816406 41.613281 153.179688 41.71875 153.550781 41.785156 C 153.921875 41.851562 154.296875 41.878906 154.675781 41.871094 L 171.894531 41.871094 L 171.894531 64.121094 C 155.714844 66.152344 140.320312 70.796875 125.71875 78.058594 C 125.324219 77.449219 124.835938 76.925781 124.253906 76.492188 C 122.621094 75.296875 120.90625 74.238281 119.101562 73.324219 C 117.300781 72.40625 115.433594 71.636719 113.507812 71.023438 C 111.582031 70.40625 109.621094 69.949219 107.617188 69.648438 C 105.617188 69.351562 103.609375 69.214844 101.585938 69.238281 C 99.5625 69.265625 97.554688 69.453125 95.5625 69.800781 C 93.570312 70.152344 91.621094 70.660156 89.710938 71.324219 C 87.800781 71.988281 85.957031 72.804688 84.179688 73.765625 C 82.398438 74.726562 80.710938 75.828125 79.109375 77.0625 C 77.585938 78.347656 76.175781 79.746094 74.875 81.253906 C 73.578125 82.765625 72.40625 84.367188 71.359375 86.0625 C 70.316406 87.757812 69.410156 89.523438 68.644531 91.363281 C 67.878906 93.203125 67.265625 95.089844 66.800781 97.027344 C 66.335938 98.960938 66.027344 100.921875 65.871094 102.910156 C 65.71875 104.894531 65.722656 106.878906 65.882812 108.863281 C 66.042969 110.851562 66.363281 112.808594 66.835938 114.746094 C 67.308594 116.679688 67.929688 118.566406 68.699219 120.402344 C 69 121.164062 69.445312 121.828125 70.039062 122.390625 C 70.632812 122.953125 71.316406 123.367188 72.09375 123.625 C 70.4375 125.9375 68.847656 128.296875 67.332031 130.703125 C 65.8125 133.109375 64.367188 135.558594 62.992188 138.050781 C 61.617188 140.542969 60.316406 143.070312 59.09375 145.640625 C 57.867188 148.207031 56.71875 150.808594 55.644531 153.445312 C 54.574219 156.082031 53.578125 158.746094 52.664062 161.4375 C 51.746094 164.132812 50.910156 166.851562 50.15625 169.59375 C 49.402344 172.339844 48.726562 175.101562 48.132812 177.882812 C 47.539062 180.667969 47.027344 183.464844 46.601562 186.277344 C 46.171875 189.089844 45.824219 191.914062 45.5625 194.746094 C 45.300781 197.582031 45.121094 200.417969 45.023438 203.261719 C 44.929688 206.105469 44.917969 208.949219 44.988281 211.792969 C 45.058594 214.640625 45.214844 217.480469 45.453125 220.316406 C 45.691406 223.148438 46.015625 225.976562 46.417969 228.792969 C 46.824219 231.609375 47.308594 234.410156 47.878906 237.199219 C 48.449219 239.988281 49.101562 242.753906 49.832031 245.503906 C 50.566406 248.253906 51.378906 250.980469 52.269531 253.683594 C 53.164062 256.382812 54.132812 259.054688 55.183594 261.699219 C 56.234375 264.34375 57.359375 266.957031 58.5625 269.535156 C 59.769531 272.113281 61.046875 274.65625 62.398438 277.15625 C 63.75 279.660156 65.175781 282.121094 66.675781 284.542969 C 68.171875 286.960938 69.738281 289.332031 71.375 291.660156 C 73.015625 293.988281 74.71875 296.265625 76.488281 298.492188 C 78.261719 300.71875 80.09375 302.890625 81.996094 305.011719 C 83.894531 307.128906 85.851562 309.191406 87.875 311.195312 C 89.894531 313.199219 91.96875 315.140625 94.105469 317.023438 C 96.238281 318.902344 98.425781 320.71875 100.667969 322.472656 C 102.910156 324.226562 105.199219 325.910156 107.539062 327.53125 C 109.882812 329.148438 112.265625 330.695312 114.699219 332.171875 C 117.128906 333.652344 119.601562 335.054688 122.117188 336.386719 C 124.632812 337.71875 127.183594 338.976562 129.769531 340.160156 C 132.359375 341.339844 134.976562 342.445312 137.632812 343.476562 C 140.285156 344.503906 142.964844 345.453125 145.675781 346.320312 C 148.382812 347.191406 151.113281 347.984375 153.871094 348.691406 C 156.625 349.402344 159.398438 350.03125 162.191406 350.578125 C 164.984375 351.121094 167.789062 351.585938 170.609375 351.96875 C 173.429688 352.351562 176.257812 352.648438 179.09375 352.863281 C 181.929688 353.078125 184.773438 353.210938 187.617188 353.257812 C 190.460938 353.304688 193.304688 353.269531 196.148438 353.152344 C 198.992188 353.03125 201.828125 352.828125 204.65625 352.542969 C 207.488281 352.257812 210.308594 351.886719 213.117188 351.433594 C 215.925781 350.984375 218.71875 350.449219 221.496094 349.832031 C 224.273438 349.214844 227.03125 348.519531 229.769531 347.738281 C 232.503906 346.960938 235.21875 346.101562 237.902344 345.164062 C 240.589844 344.226562 243.246094 343.210938 245.871094 342.117188 C 248.5 341.023438 251.089844 339.851562 253.648438 338.605469 C 256.207031 337.359375 258.722656 336.039062 261.203125 334.644531 C 263.683594 333.25 266.121094 331.78125 268.515625 330.242188 C 270.90625 328.707031 273.253906 327.097656 275.554688 325.421875 C 277.851562 323.746094 280.101562 322.003906 282.296875 320.195312 C 284.492188 318.386719 286.632812 316.515625 288.722656 314.582031 C 290.808594 312.644531 292.835938 310.652344 294.804688 308.597656 C 296.773438 306.542969 298.679688 304.433594 300.527344 302.269531 C 302.371094 300.101562 304.152344 297.886719 305.867188 295.613281 C 307.582031 293.34375 309.226562 291.023438 310.804688 288.65625 C 312.382812 286.289062 313.890625 283.878906 315.328125 281.421875 C 316.765625 278.964844 318.128906 276.46875 319.417969 273.933594 C 320.707031 271.398438 321.921875 268.824219 323.058594 266.21875 C 324.199219 263.609375 325.257812 260.972656 326.242188 258.300781 C 327.226562 255.628906 328.128906 252.933594 328.953125 250.210938 C 329.777344 247.488281 330.523438 244.742188 331.183594 241.976562 C 331.847656 239.207031 332.429688 236.425781 332.929688 233.621094 C 333.429688 230.820312 333.84375 228.007812 334.179688 225.183594 C 334.511719 222.355469 334.765625 219.523438 334.929688 216.683594 C 335.097656 213.84375 335.183594 211 335.183594 208.15625 C 335.191406 200.542969 334.597656 192.976562 333.410156 185.457031 C 332.21875 177.9375 330.445312 170.558594 328.089844 163.320312 C 325.730469 156.082031 322.820312 149.074219 319.351562 142.296875 C 315.886719 135.519531 311.910156 129.058594 307.417969 122.910156 Z M 291.484375 86.5 C 292.402344 87.285156 293.257812 88.136719 294.054688 89.046875 C 294.851562 89.957031 295.578125 90.917969 296.234375 91.933594 C 296.894531 92.949219 297.476562 94.003906 297.984375 95.101562 C 298.492188 96.199219 298.917969 97.328125 299.261719 98.488281 C 299.609375 99.644531 299.871094 100.824219 300.046875 102.019531 C 300.222656 103.214844 300.316406 104.417969 300.320312 105.628906 C 300.324219 106.835938 300.242188 108.039062 300.078125 109.238281 C 299.910156 110.433594 299.65625 111.613281 299.320312 112.777344 C 289.339844 101.355469 277.863281 91.722656 264.886719 83.875 C 265.9375 83.351562 267.023438 82.902344 268.136719 82.53125 C 269.253906 82.160156 270.386719 81.867188 271.542969 81.65625 C 272.703125 81.441406 273.867188 81.3125 275.042969 81.261719 C 276.214844 81.210938 277.390625 81.242188 278.558594 81.359375 C 279.730469 81.472656 280.886719 81.667969 282.027344 81.945312 C 283.171875 82.222656 284.289062 82.578125 285.382812 83.011719 C 286.476562 83.445312 287.53125 83.949219 288.554688 84.53125 C 289.578125 85.113281 290.554688 85.761719 291.484375 86.480469 Z M 160.726562 29.808594 L 160.726562 20.929688 L 218.40625 20.929688 L 218.40625 29.808594 Z M 195.164062 41.871094 L 195.164062 63.082031 C 193.453125 63.019531 191.75 62.949219 190.027344 62.949219 C 188 62.949219 185.988281 63.019531 183.976562 63.101562 L 183.976562 41.871094 Z M 86.671875 86.480469 C 87.644531 85.734375 88.660156 85.0625 89.726562 84.464844 C 90.792969 83.867188 91.898438 83.347656 93.039062 82.914062 C 94.183594 82.476562 95.351562 82.121094 96.542969 81.855469 C 97.738281 81.589844 98.945312 81.410156 100.164062 81.316406 C 101.382812 81.226562 102.601562 81.222656 103.824219 81.308594 C 105.042969 81.394531 106.25 81.570312 107.445312 81.832031 C 108.640625 82.09375 109.808594 82.441406 110.953125 82.875 C 112.097656 83.304688 113.203125 83.820312 114.273438 84.414062 C 101.050781 92.542969 89.417969 102.523438 79.375 114.359375 C 78.9375 113.15625 78.59375 111.925781 78.34375 110.671875 C 78.09375 109.417969 77.9375 108.152344 77.878906 106.871094 C 77.820312 105.59375 77.855469 104.320312 77.988281 103.046875 C 78.125 101.773438 78.351562 100.519531 78.675781 99.28125 C 79 98.042969 79.417969 96.835938 79.921875 95.660156 C 80.429688 94.488281 81.023438 93.355469 81.699219 92.273438 C 82.378906 91.1875 83.132812 90.160156 83.96875 89.1875 C 84.800781 88.21875 85.703125 87.316406 86.671875 86.480469 Z M 190.027344 341.257812 C 187.847656 341.257812 185.671875 341.203125 183.496094 341.097656 C 181.320312 340.992188 179.148438 340.832031 176.980469 340.617188 C 174.8125 340.402344 172.648438 340.136719 170.492188 339.816406 C 168.339844 339.5 166.191406 339.125 164.054688 338.703125 C 161.917969 338.277344 159.792969 337.800781 157.679688 337.269531 C 155.566406 336.742188 153.46875 336.160156 151.382812 335.527344 C 149.296875 334.898438 147.230469 334.214844 145.179688 333.480469 C 143.128906 332.746094 141.09375 331.960938 139.082031 331.128906 C 137.070312 330.296875 135.078125 329.414062 133.109375 328.480469 C 131.140625 327.550781 129.191406 326.570312 127.273438 325.542969 C 125.351562 324.515625 123.453125 323.445312 121.585938 322.324219 C 119.71875 321.203125 117.878906 320.039062 116.066406 318.828125 C 114.253906 317.617188 112.472656 316.363281 110.722656 315.066406 C 108.972656 313.769531 107.257812 312.429688 105.570312 311.046875 C 103.886719 309.664062 102.238281 308.242188 100.625 306.777344 C 99.007812 305.316406 97.433594 303.8125 95.890625 302.273438 C 94.351562 300.734375 92.847656 299.15625 91.386719 297.542969 C 89.921875 295.925781 88.5 294.277344 87.117188 292.59375 C 85.734375 290.910156 84.394531 289.191406 83.097656 287.441406 C 81.796875 285.691406 80.542969 283.910156 79.335938 282.101562 C 78.125 280.289062 76.957031 278.449219 75.839844 276.578125 C 74.71875 274.710938 73.644531 272.816406 72.617188 270.894531 C 71.589844 268.972656 70.609375 267.027344 69.679688 265.058594 C 68.746094 263.089844 67.863281 261.097656 67.03125 259.082031 C 66.195312 257.070312 65.414062 255.039062 64.679688 252.988281 C 63.945312 250.9375 63.261719 248.867188 62.628906 246.78125 C 61.996094 244.699219 61.414062 242.597656 60.886719 240.484375 C 60.355469 238.371094 59.878906 236.246094 59.453125 234.109375 C 59.027344 231.972656 58.65625 229.828125 58.335938 227.671875 C 58.015625 225.515625 57.75 223.355469 57.535156 221.1875 C 57.324219 219.015625 57.164062 216.84375 57.054688 214.667969 C 56.949219 212.492188 56.894531 210.316406 56.894531 208.136719 C 56.894531 205.957031 56.949219 203.78125 57.054688 201.605469 C 57.160156 199.429688 57.320312 197.253906 57.535156 195.085938 C 57.75 192.917969 58.015625 190.757812 58.335938 188.601562 C 58.65625 186.445312 59.027344 184.300781 59.453125 182.164062 C 59.878906 180.027344 60.355469 177.902344 60.882812 175.789062 C 61.414062 173.675781 61.992188 171.574219 62.625 169.488281 C 63.257812 167.40625 63.941406 165.335938 64.675781 163.285156 C 65.410156 161.234375 66.195312 159.203125 67.027344 157.1875 C 67.859375 155.175781 68.742188 153.183594 69.675781 151.214844 C 70.605469 149.246094 71.585938 147.300781 72.613281 145.378906 C 73.640625 143.457031 74.714844 141.5625 75.832031 139.691406 C 76.953125 137.824219 78.117188 135.984375 79.328125 134.171875 C 80.539062 132.359375 81.792969 130.578125 83.089844 128.828125 C 84.390625 127.078125 85.730469 125.363281 87.113281 123.675781 C 88.492188 121.992188 89.917969 120.34375 91.378906 118.730469 C 92.84375 117.117188 94.34375 115.539062 95.886719 113.996094 C 97.425781 112.457031 99.003906 110.953125 100.617188 109.492188 C 102.230469 108.027344 103.878906 106.605469 105.566406 105.222656 C 107.25 103.839844 108.964844 102.5 110.714844 101.203125 C 112.464844 99.90625 114.246094 98.652344 116.058594 97.441406 C 117.871094 96.230469 119.710938 95.066406 121.578125 93.945312 C 123.449219 92.824219 125.34375 91.75 127.265625 90.722656 C 129.183594 89.699219 131.128906 88.71875 133.101562 87.785156 C 135.070312 86.855469 137.0625 85.972656 139.074219 85.140625 C 141.085938 84.304688 143.117188 83.519531 145.171875 82.789062 C 147.222656 82.054688 149.289062 81.371094 151.375 80.738281 C 153.460938 80.105469 155.558594 79.523438 157.671875 78.996094 C 159.785156 78.464844 161.910156 77.988281 164.046875 77.5625 C 166.183594 77.140625 168.328125 76.765625 170.484375 76.449219 C 172.640625 76.128906 174.800781 75.859375 176.96875 75.648438 C 179.136719 75.433594 181.308594 75.273438 183.484375 75.167969 C 185.664062 75.0625 187.839844 75.007812 190.019531 75.007812 C 192.195312 75.007812 194.375 75.0625 196.550781 75.167969 C 198.726562 75.277344 200.898438 75.4375 203.066406 75.648438 C 205.234375 75.863281 207.394531 76.128906 209.550781 76.449219 C 211.707031 76.769531 213.851562 77.140625 215.988281 77.566406 C 218.125 77.992188 220.25 78.46875 222.363281 79 C 224.476562 79.53125 226.578125 80.109375 228.660156 80.742188 C 230.746094 81.375 232.8125 82.058594 234.867188 82.792969 C 236.917969 83.527344 238.949219 84.3125 240.960938 85.144531 C 242.972656 85.980469 244.964844 86.863281 246.933594 87.792969 C 248.902344 88.726562 250.847656 89.707031 252.769531 90.734375 C 254.691406 91.761719 256.585938 92.835938 258.457031 93.953125 C 260.324219 95.074219 262.164062 96.238281 263.976562 97.449219 C 265.785156 98.660156 267.566406 99.914062 269.316406 101.214844 C 271.066406 102.511719 272.785156 103.851562 274.46875 105.234375 C 276.152344 106.617188 277.800781 108.039062 279.414062 109.503906 C 281.027344 110.96875 282.605469 112.46875 284.148438 114.011719 C 285.6875 115.550781 287.1875 117.128906 288.652344 118.742188 C 290.113281 120.359375 291.535156 122.007812 292.917969 123.691406 C 294.300781 125.375 295.640625 127.09375 296.9375 128.84375 C 298.234375 130.59375 299.488281 132.375 300.699219 134.1875 C 301.910156 136 303.074219 137.839844 304.195312 139.707031 C 305.3125 141.578125 306.386719 143.472656 307.414062 145.394531 C 308.441406 147.316406 309.421875 149.261719 310.351562 151.230469 C 311.28125 153.199219 312.164062 155.191406 313 157.203125 C 313.832031 159.21875 314.617188 161.25 315.347656 163.300781 C 316.082031 165.355469 316.765625 167.421875 317.398438 169.507812 C 318.03125 171.59375 318.609375 173.691406 319.140625 175.804688 C 319.667969 177.917969 320.144531 180.042969 320.570312 182.179688 C 320.996094 184.316406 321.367188 186.464844 321.6875 188.621094 C 322.003906 190.773438 322.273438 192.9375 322.484375 195.105469 C 322.699219 197.273438 322.859375 199.445312 322.964844 201.621094 C 323.070312 203.796875 323.125 205.976562 323.125 208.15625 C 323.121094 210.332031 323.066406 212.507812 322.957031 214.683594 C 322.847656 216.859375 322.683594 219.027344 322.46875 221.195312 C 322.253906 223.363281 321.984375 225.523438 321.660156 227.675781 C 321.339844 229.832031 320.964844 231.976562 320.539062 234.109375 C 320.113281 236.246094 319.632812 238.371094 319.101562 240.480469 C 318.570312 242.59375 317.988281 244.691406 317.355469 246.773438 C 316.722656 248.859375 316.039062 250.925781 315.304688 252.972656 C 314.566406 255.023438 313.78125 257.054688 312.949219 259.066406 C 312.113281 261.078125 311.230469 263.066406 310.296875 265.035156 C 309.367188 267.003906 308.386719 268.945312 307.359375 270.867188 C 306.332031 272.789062 305.257812 274.679688 304.136719 276.546875 C 303.019531 278.414062 301.851562 280.253906 300.640625 282.066406 C 299.433594 283.875 298.179688 285.65625 296.878906 287.402344 C 295.582031 289.152344 294.242188 290.867188 292.863281 292.550781 C 291.480469 294.234375 290.058594 295.882812 288.59375 297.496094 C 287.132812 299.109375 285.632812 300.6875 284.09375 302.226562 C 282.550781 303.765625 280.976562 305.265625 279.363281 306.730469 C 277.75 308.191406 276.101562 309.613281 274.417969 310.996094 C 272.734375 312.378906 271.019531 313.714844 269.269531 315.015625 C 267.523438 316.3125 265.742188 317.566406 263.933594 318.777344 C 262.121094 319.988281 260.285156 321.152344 258.417969 322.273438 C 256.550781 323.390625 254.65625 324.464844 252.734375 325.492188 C 250.816406 326.519531 248.871094 327.5 246.902344 328.433594 C 244.9375 329.363281 242.945312 330.246094 240.933594 331.082031 C 238.925781 331.917969 236.894531 332.703125 234.84375 333.4375 C 232.792969 334.171875 230.726562 334.855469 228.644531 335.488281 C 226.5625 336.125 224.464844 336.707031 222.351562 337.238281 C 220.238281 337.765625 218.117188 338.246094 215.980469 338.671875 C 213.847656 339.097656 211.703125 339.472656 209.546875 339.796875 C 207.394531 340.117188 205.234375 340.386719 203.066406 340.601562 C 200.902344 340.816406 198.730469 340.980469 196.554688 341.089844 C 194.378906 341.199219 192.203125 341.253906 190.027344 341.257812 Z M 256.070312 160.660156 C 256.390625 160.976562 256.675781 161.324219 256.925781 161.699219 C 257.175781 162.070312 257.386719 162.464844 257.558594 162.878906 C 257.734375 163.292969 257.863281 163.722656 257.953125 164.164062 C 258.042969 164.605469 258.085938 165.050781 258.085938 165.5 C 258.089844 165.949219 258.046875 166.394531 257.960938 166.835938 C 257.875 167.277344 257.746094 167.707031 257.578125 168.121094 C 257.40625 168.539062 257.195312 168.933594 256.949219 169.308594 C 256.699219 169.683594 256.417969 170.03125 256.101562 170.351562 L 188.238281 238.285156 C 187.597656 238.933594 186.859375 239.429688 186.019531 239.78125 C 185.179688 240.128906 184.308594 240.304688 183.398438 240.304688 L 183.375 240.304688 C 182.472656 240.308594 181.601562 240.136719 180.765625 239.792969 C 179.929688 239.445312 179.191406 238.953125 178.554688 238.3125 C 178.273438 238.042969 178.023438 237.746094 177.800781 237.425781 L 149.859375 204.214844 C 149.5625 203.855469 149.308594 203.464844 149.09375 203.050781 C 148.878906 202.636719 148.707031 202.203125 148.578125 201.753906 C 148.453125 201.304688 148.371094 200.847656 148.339844 200.382812 C 148.304688 199.917969 148.320312 199.453125 148.378906 198.988281 C 148.441406 198.527344 148.550781 198.074219 148.703125 197.632812 C 148.855469 197.195312 149.054688 196.773438 149.292969 196.371094 C 149.53125 195.972656 149.8125 195.597656 150.125 195.253906 C 150.441406 194.910156 150.789062 194.601562 151.167969 194.332031 C 151.546875 194.058594 151.949219 193.824219 152.375 193.636719 C 152.804688 193.445312 153.242188 193.300781 153.699219 193.199219 C 154.15625 193.097656 154.617188 193.046875 155.085938 193.039062 C 155.550781 193.035156 156.015625 193.074219 156.472656 193.164062 C 156.929688 193.253906 157.375 193.386719 157.804688 193.566406 C 158.238281 193.746094 158.644531 193.964844 159.03125 194.230469 C 159.417969 194.492188 159.773438 194.792969 160.097656 195.128906 C 160.421875 195.464844 160.707031 195.828125 160.957031 196.222656 L 184.167969 222.988281 L 246.382812 160.691406 C 246.707031 160.382812 247.054688 160.105469 247.429688 159.863281 C 247.804688 159.621094 248.199219 159.414062 248.613281 159.25 C 249.027344 159.082031 249.453125 158.953125 249.894531 158.867188 C 250.332031 158.78125 250.773438 158.738281 251.222656 158.738281 C 251.667969 158.734375 252.109375 158.777344 252.550781 158.859375 C 252.988281 158.941406 253.417969 159.066406 253.832031 159.230469 C 254.246094 159.394531 254.644531 159.597656 255.019531 159.839844 C 255.398438 160.078125 255.746094 160.355469 256.070312 160.660156 Z M 190.027344 93.613281 C 188.15625 93.613281 186.289062 93.65625 184.417969 93.75 C 182.550781 93.839844 180.683594 93.976562 178.824219 94.160156 C 176.960938 94.34375 175.105469 94.574219 173.257812 94.847656 C 171.40625 95.121094 169.5625 95.441406 167.726562 95.804688 C 165.894531 96.171875 164.070312 96.578125 162.253906 97.035156 C 160.441406 97.488281 158.636719 97.988281 156.847656 98.527344 C 155.058594 99.070312 153.28125 99.660156 151.519531 100.289062 C 149.757812 100.917969 148.015625 101.589844 146.285156 102.308594 C 144.558594 103.023438 142.847656 103.78125 141.15625 104.578125 C 139.464844 105.378906 137.796875 106.21875 136.144531 107.101562 C 134.496094 107.984375 132.867188 108.90625 131.265625 109.867188 C 129.660156 110.828125 128.078125 111.828125 126.523438 112.867188 C 124.96875 113.90625 123.4375 114.980469 121.9375 116.097656 C 120.433594 117.210938 118.960938 118.359375 117.511719 119.546875 C 116.066406 120.734375 114.652344 121.957031 113.265625 123.210938 C 111.878906 124.46875 110.523438 125.757812 109.199219 127.078125 C 107.878906 128.402344 106.589844 129.757812 105.332031 131.140625 C 104.074219 132.527344 102.855469 133.945312 101.667969 135.390625 C 100.480469 136.835938 99.328125 138.308594 98.214844 139.8125 C 97.101562 141.316406 96.023438 142.84375 94.984375 144.398438 C 93.945312 145.953125 92.945312 147.535156 91.980469 149.136719 C 91.019531 150.742188 90.097656 152.371094 89.214844 154.019531 C 88.335938 155.667969 87.492188 157.339844 86.691406 159.03125 C 85.894531 160.722656 85.136719 162.429688 84.417969 164.160156 C 83.703125 165.886719 83.03125 167.632812 82.398438 169.394531 C 81.769531 171.15625 81.179688 172.929688 80.636719 174.71875 C 80.09375 176.511719 79.597656 178.3125 79.140625 180.128906 C 78.6875 181.941406 78.277344 183.765625 77.910156 185.601562 C 77.546875 187.4375 77.226562 189.277344 76.953125 191.128906 C 76.675781 192.980469 76.449219 194.835938 76.261719 196.699219 C 76.078125 198.558594 75.941406 200.425781 75.851562 202.292969 C 75.757812 204.160156 75.710938 206.03125 75.710938 207.902344 C 75.710938 209.773438 75.757812 211.640625 75.847656 213.511719 C 75.941406 215.378906 76.078125 217.242188 76.261719 219.105469 C 76.441406 220.96875 76.671875 222.824219 76.945312 224.671875 C 77.21875 226.523438 77.539062 228.367188 77.902344 230.203125 C 78.269531 232.035156 78.679688 233.859375 79.132812 235.675781 C 79.585938 237.492188 80.085938 239.292969 80.628906 241.082031 C 81.171875 242.875 81.757812 244.648438 82.386719 246.410156 C 83.015625 248.171875 83.691406 249.917969 84.40625 251.644531 C 85.121094 253.375 85.878906 255.085938 86.679688 256.773438 C 87.476562 258.464844 88.316406 260.136719 89.199219 261.785156 C 90.082031 263.4375 91.003906 265.0625 91.964844 266.667969 C 92.925781 268.273438 93.925781 269.855469 94.964844 271.410156 C 96.003906 272.964844 97.078125 274.496094 98.195312 275.996094 C 99.308594 277.5 100.457031 278.972656 101.644531 280.421875 C 102.832031 281.867188 104.050781 283.28125 105.308594 284.667969 C 106.5625 286.054688 107.855469 287.410156 109.175781 288.734375 C 110.5 290.054688 111.851562 291.347656 113.238281 292.601562 C 114.625 293.859375 116.039062 295.082031 117.484375 296.269531 C 118.933594 297.453125 120.40625 298.605469 121.90625 299.71875 C 123.410156 300.835938 124.9375 301.910156 126.492188 302.953125 C 128.050781 303.992188 129.628906 304.992188 131.234375 305.953125 C 132.835938 306.914062 134.464844 307.839844 136.113281 308.71875 C 137.761719 309.601562 139.433594 310.441406 141.125 311.242188 C 142.816406 312.042969 144.523438 312.800781 146.253906 313.519531 C 147.980469 314.234375 149.726562 314.90625 151.488281 315.539062 C 153.246094 316.167969 155.023438 316.753906 156.8125 317.296875 C 158.601562 317.839844 160.40625 318.339844 162.21875 318.796875 C 164.035156 319.25 165.859375 319.660156 167.695312 320.027344 C 169.527344 320.390625 171.371094 320.710938 173.222656 320.984375 C 175.070312 321.261719 176.925781 321.488281 178.789062 321.671875 C 180.648438 321.855469 182.515625 321.996094 184.382812 322.085938 C 186.25 322.179688 188.121094 322.226562 189.992188 322.226562 C 191.863281 322.226562 193.730469 322.179688 195.601562 322.089844 C 197.46875 321.996094 199.332031 321.859375 201.195312 321.675781 C 203.054688 321.492188 204.914062 321.265625 206.761719 320.992188 C 208.613281 320.71875 210.457031 320.398438 212.289062 320.03125 C 214.125 319.667969 215.949219 319.257812 217.765625 318.804688 C 219.578125 318.351562 221.382812 317.851562 223.171875 317.308594 C 224.960938 316.765625 226.738281 316.179688 228.5 315.550781 C 230.261719 314.917969 232.003906 314.246094 233.734375 313.53125 C 235.460938 312.816406 237.171875 312.058594 238.863281 311.257812 C 240.554688 310.457031 242.222656 309.617188 243.875 308.738281 C 245.523438 307.855469 247.152344 306.933594 248.753906 305.972656 C 250.359375 305.011719 251.941406 304.011719 253.496094 302.972656 C 255.050781 301.933594 256.578125 300.855469 258.082031 299.742188 C 259.585938 298.628906 261.058594 297.476562 262.503906 296.289062 C 263.953125 295.105469 265.367188 293.882812 266.753906 292.625 C 268.140625 291.371094 269.496094 290.082031 270.816406 288.757812 C 272.140625 287.4375 273.429688 286.082031 274.6875 284.695312 C 275.941406 283.308594 277.164062 281.894531 278.351562 280.449219 C 279.539062 279.003906 280.6875 277.527344 281.804688 276.027344 C 282.917969 274.523438 283.996094 272.996094 285.035156 271.4375 C 286.074219 269.882812 287.074219 268.304688 288.035156 266.699219 C 289 265.09375 289.921875 263.46875 290.800781 261.820312 C 291.683594 260.167969 292.527344 258.5 293.324219 256.808594 C 294.125 255.117188 294.882812 253.40625 295.601562 251.679688 C 296.316406 249.949219 296.988281 248.207031 297.621094 246.445312 C 298.25 244.683594 298.835938 242.90625 299.378906 241.117188 C 299.921875 239.328125 300.421875 237.523438 300.878906 235.710938 C 301.332031 233.894531 301.742188 232.070312 302.109375 230.238281 C 302.472656 228.402344 302.792969 226.558594 303.066406 224.707031 C 303.34375 222.859375 303.570312 221.003906 303.753906 219.140625 C 303.9375 217.277344 304.078125 215.414062 304.167969 213.546875 C 304.261719 211.675781 304.308594 209.808594 304.308594 207.9375 C 304.304688 206.066406 304.257812 204.199219 304.164062 202.328125 C 304.070312 200.460938 303.933594 198.597656 303.746094 196.738281 C 303.5625 194.875 303.332031 193.019531 303.054688 191.171875 C 302.78125 189.320312 302.460938 187.480469 302.09375 185.644531 C 301.726562 183.8125 301.316406 181.988281 300.859375 180.175781 C 300.40625 178.359375 299.90625 176.558594 299.363281 174.769531 C 298.816406 172.980469 298.230469 171.207031 297.601562 169.445312 C 296.96875 167.683594 296.296875 165.941406 295.578125 164.210938 C 294.863281 162.484375 294.105469 160.777344 293.304688 159.085938 C 292.503906 157.394531 291.664062 155.726562 290.78125 154.078125 C 289.898438 152.429688 288.976562 150.800781 288.015625 149.199219 C 287.054688 147.59375 286.054688 146.015625 285.015625 144.460938 C 283.976562 142.90625 282.898438 141.375 281.785156 139.875 C 280.671875 138.371094 279.519531 136.898438 278.335938 135.453125 C 277.148438 134.007812 275.925781 132.59375 274.671875 131.207031 C 273.414062 129.820312 272.125 128.464844 270.804688 127.144531 C 269.484375 125.820312 268.128906 124.53125 266.742188 123.277344 C 265.359375 122.019531 263.941406 120.796875 262.496094 119.609375 C 261.054688 118.425781 259.578125 117.273438 258.078125 116.160156 C 256.578125 115.042969 255.046875 113.96875 253.492188 112.929688 C 251.941406 111.886719 250.359375 110.886719 248.757812 109.925781 C 247.152344 108.964844 245.527344 108.039062 243.878906 107.160156 C 242.230469 106.277344 240.5625 105.433594 238.871094 104.632812 C 237.179688 103.832031 235.472656 103.074219 233.746094 102.359375 C 232.019531 101.640625 230.273438 100.964844 228.515625 100.335938 C 226.753906 99.703125 224.980469 99.117188 223.191406 98.570312 C 221.402344 98.027344 219.601562 97.527344 217.785156 97.070312 C 215.972656 96.613281 214.148438 96.203125 212.316406 95.835938 C 210.480469 95.46875 208.640625 95.148438 206.792969 94.871094 C 204.941406 94.597656 203.085938 94.367188 201.226562 94.179688 C 199.367188 93.996094 197.5 93.855469 195.632812 93.761719 C 193.765625 93.667969 191.898438 93.621094 190.027344 93.617188 Z M 194.359375 309.726562 C 194.402344 309.488281 194.425781 309.25 194.4375 309.007812 L 194.4375 290.398438 C 194.4375 290 194.398438 289.609375 194.320312 289.222656 C 194.242188 288.832031 194.128906 288.457031 193.976562 288.089844 C 193.824219 287.722656 193.640625 287.375 193.417969 287.046875 C 193.199219 286.71875 192.949219 286.414062 192.671875 286.132812 C 192.390625 285.855469 192.085938 285.605469 191.757812 285.382812 C 191.425781 285.164062 191.078125 284.976562 190.714844 284.828125 C 190.347656 284.675781 189.972656 284.5625 189.582031 284.484375 C 189.195312 284.40625 188.800781 284.367188 188.40625 284.367188 C 188.011719 284.367188 187.617188 284.40625 187.230469 284.484375 C 186.84375 284.5625 186.464844 284.675781 186.097656 284.828125 C 185.734375 284.976562 185.386719 285.164062 185.058594 285.382812 C 184.726562 285.605469 184.421875 285.855469 184.144531 286.132812 C 183.863281 286.414062 183.613281 286.71875 183.394531 287.046875 C 183.171875 287.375 182.988281 287.722656 182.835938 288.089844 C 182.683594 288.457031 182.570312 288.832031 182.492188 289.222656 C 182.414062 289.609375 182.378906 290 182.378906 290.398438 L 182.378906 308.996094 C 182.378906 309.171875 182.417969 309.339844 182.429688 309.511719 C 179.457031 309.285156 176.5 308.929688 173.558594 308.445312 C 170.617188 307.960938 167.703125 307.347656 164.816406 306.605469 C 161.929688 305.867188 159.078125 305 156.265625 304.011719 C 153.457031 303.019531 150.691406 301.910156 147.976562 300.675781 C 145.265625 299.445312 142.609375 298.09375 140.011719 296.628906 C 137.417969 295.164062 134.890625 293.589844 132.429688 291.902344 C 129.972656 290.214844 127.59375 288.421875 125.292969 286.527344 C 122.992188 284.632812 120.777344 282.640625 118.652344 280.550781 C 116.523438 278.460938 114.492188 276.28125 112.558594 274.015625 C 110.621094 271.75 108.789062 269.402344 107.058594 266.972656 C 105.332031 264.542969 103.710938 262.046875 102.199219 259.476562 C 100.6875 256.90625 99.292969 254.273438 98.011719 251.582031 C 96.730469 248.890625 95.574219 246.144531 94.53125 243.351562 C 93.492188 240.558594 92.578125 237.722656 91.785156 234.847656 C 90.992188 231.976562 90.328125 229.070312 89.792969 226.140625 C 89.257812 223.207031 88.847656 220.257812 88.570312 217.289062 C 88.914062 217.355469 89.257812 217.390625 89.609375 217.394531 L 103.554688 217.394531 C 104.351562 217.382812 105.121094 217.226562 105.859375 216.917969 C 106.597656 216.609375 107.25 216.179688 107.820312 215.617188 C 108.242188 215.195312 108.59375 214.722656 108.875 214.195312 C 109.15625 213.671875 109.351562 213.113281 109.46875 212.53125 C 109.585938 211.945312 109.613281 211.355469 109.554688 210.761719 C 109.496094 210.167969 109.351562 209.597656 109.125 209.046875 C 108.894531 208.496094 108.59375 207.988281 108.214844 207.527344 C 107.835938 207.066406 107.398438 206.671875 106.902344 206.339844 C 106.410156 206.007812 105.875 205.753906 105.304688 205.582031 C 104.734375 205.410156 104.152344 205.320312 103.554688 205.320312 L 89.609375 205.320312 C 89.128906 205.332031 88.65625 205.398438 88.191406 205.519531 C 88.230469 203.972656 88.304688 202.425781 88.414062 200.878906 C 88.523438 199.332031 88.664062 197.789062 88.84375 196.25 C 89.023438 194.710938 89.238281 193.175781 89.488281 191.644531 C 89.738281 190.117188 90.019531 188.59375 90.339844 187.074219 C 90.65625 185.558594 91.011719 184.050781 91.398438 182.550781 C 91.785156 181.050781 92.207031 179.558594 92.660156 178.078125 C 93.117188 176.59375 93.605469 175.125 94.125 173.664062 C 94.648438 172.207031 95.203125 170.757812 95.792969 169.324219 C 96.378906 167.890625 97 166.472656 97.652344 165.066406 C 98.304688 163.660156 98.992188 162.269531 99.707031 160.894531 C 100.421875 159.519531 101.171875 158.164062 101.949219 156.824219 C 102.726562 155.484375 103.535156 154.160156 104.371094 152.855469 C 105.210938 151.554688 106.078125 150.269531 106.976562 149.003906 C 107.871094 147.742188 108.796875 146.5 109.75 145.277344 C 110.703125 144.054688 111.683594 142.855469 112.691406 141.679688 C 113.699219 140.5 114.734375 139.347656 115.796875 138.21875 C 116.855469 137.085938 117.941406 135.980469 119.054688 134.902344 C 120.164062 133.820312 121.300781 132.765625 122.457031 131.738281 C 123.617188 130.707031 124.800781 129.707031 126.003906 128.730469 C 127.207031 127.757812 128.433594 126.808594 129.683594 125.890625 C 130.929688 124.972656 132.199219 124.082031 133.488281 123.21875 C 134.777344 122.359375 136.082031 121.527344 137.410156 120.726562 C 138.734375 119.921875 140.078125 119.152344 141.441406 118.410156 C 142.800781 117.671875 144.179688 116.960938 145.574219 116.285156 C 146.96875 115.605469 148.375 114.960938 149.800781 114.347656 C 151.222656 113.734375 152.660156 113.152344 154.109375 112.605469 C 155.558594 112.058594 157.019531 111.542969 158.492188 111.0625 C 159.964844 110.578125 161.449219 110.132812 162.941406 109.71875 C 164.4375 109.304688 165.9375 108.925781 167.449219 108.578125 C 168.960938 108.234375 170.476562 107.921875 172.003906 107.648438 C 173.527344 107.371094 175.058594 107.128906 176.59375 106.921875 C 178.128906 106.71875 179.671875 106.546875 181.214844 106.410156 L 181.214844 125.347656 C 181.214844 125.742188 181.253906 126.136719 181.328125 126.523438 C 181.40625 126.910156 181.519531 127.289062 181.671875 127.65625 C 181.824219 128.019531 182.011719 128.367188 182.230469 128.695312 C 182.449219 129.027344 182.699219 129.332031 182.980469 129.609375 C 183.257812 129.890625 183.5625 130.140625 183.894531 130.359375 C 184.222656 130.582031 184.570312 130.765625 184.9375 130.917969 C 185.300781 131.070312 185.679688 131.183594 186.066406 131.261719 C 186.457031 131.339844 186.847656 131.378906 187.242188 131.378906 C 187.640625 131.378906 188.03125 131.339844 188.417969 131.261719 C 188.808594 131.183594 189.183594 131.070312 189.550781 130.917969 C 189.917969 130.765625 190.265625 130.582031 190.59375 130.359375 C 190.921875 130.140625 191.226562 129.890625 191.507812 129.609375 C 191.785156 129.332031 192.035156 129.027344 192.257812 128.695312 C 192.476562 128.367188 192.664062 128.019531 192.8125 127.65625 C 192.964844 127.289062 193.078125 126.910156 193.15625 126.523438 C 193.234375 126.136719 193.273438 125.742188 193.273438 125.347656 L 193.273438 106.085938 C 194.839844 106.136719 196.410156 106.226562 197.972656 106.347656 C 199.539062 106.472656 201.101562 106.632812 202.65625 106.828125 C 204.214844 107.027344 205.765625 107.257812 207.3125 107.527344 C 208.859375 107.792969 210.398438 108.097656 211.933594 108.433594 C 213.464844 108.773438 214.988281 109.148438 216.503906 109.558594 C 218.019531 109.96875 219.527344 110.410156 221.019531 110.890625 C 222.515625 111.367188 224 111.882812 225.472656 112.429688 C 226.941406 112.976562 228.398438 113.558594 229.84375 114.171875 C 231.289062 114.785156 232.71875 115.433594 234.132812 116.113281 C 235.546875 116.792969 236.945312 117.507812 238.328125 118.253906 C 239.710938 118.996094 241.074219 119.773438 242.417969 120.582031 C 243.765625 121.390625 245.09375 122.230469 246.398438 123.097656 C 247.707031 123.96875 248.992188 124.867188 250.257812 125.796875 C 251.523438 126.722656 252.769531 127.683594 253.988281 128.667969 C 255.210938 129.652344 256.410156 130.667969 257.582031 131.710938 C 258.757812 132.75 259.910156 133.820312 261.035156 134.914062 C 262.160156 136.007812 263.257812 137.128906 264.332031 138.273438 C 265.40625 139.417969 266.453125 140.585938 267.472656 141.78125 C 268.492188 142.976562 269.484375 144.191406 270.449219 145.429688 C 271.410156 146.671875 272.34375 147.929688 273.25 149.214844 C 274.15625 150.496094 275.03125 151.800781 275.875 153.121094 C 276.722656 154.445312 277.535156 155.785156 278.320312 157.148438 C 279.101562 158.507812 279.855469 159.886719 280.574219 161.28125 C 281.292969 162.675781 281.980469 164.085938 282.636719 165.515625 C 283.289062 166.941406 283.910156 168.382812 284.5 169.839844 C 285.085938 171.292969 285.640625 172.761719 286.160156 174.242188 C 286.683594 175.722656 287.167969 177.21875 287.617188 178.71875 C 288.070312 180.222656 288.488281 181.738281 288.867188 183.261719 C 289.25 184.78125 289.597656 186.3125 289.90625 187.851562 C 290.21875 189.390625 290.492188 190.9375 290.730469 192.488281 C 290.972656 194.039062 291.175781 195.597656 291.34375 197.15625 C 291.511719 198.71875 291.640625 200.28125 291.738281 201.847656 L 276.742188 201.847656 C 276.347656 201.847656 275.957031 201.886719 275.566406 201.964844 C 275.179688 202.042969 274.800781 202.15625 274.4375 202.308594 C 274.070312 202.460938 273.722656 202.644531 273.394531 202.867188 C 273.066406 203.085938 272.761719 203.335938 272.480469 203.617188 C 272.199219 203.894531 271.949219 204.199219 271.730469 204.527344 C 271.511719 204.859375 271.324219 205.207031 271.171875 205.570312 C 271.023438 205.9375 270.90625 206.3125 270.832031 206.703125 C 270.753906 207.089844 270.714844 207.484375 270.714844 207.878906 C 270.714844 208.273438 270.753906 208.667969 270.832031 209.054688 C 270.90625 209.445312 271.023438 209.820312 271.171875 210.1875 C 271.324219 210.550781 271.511719 210.898438 271.730469 211.230469 C 271.949219 211.558594 272.199219 211.863281 272.480469 212.144531 C 272.761719 212.421875 273.066406 212.671875 273.394531 212.894531 C 273.722656 213.113281 274.070312 213.296875 274.4375 213.449219 C 274.800781 213.601562 275.179688 213.714844 275.566406 213.792969 C 275.957031 213.871094 276.347656 213.910156 276.742188 213.910156 L 291.738281 213.910156 C 291.644531 215.464844 291.515625 217.019531 291.351562 218.570312 C 291.1875 220.121094 290.984375 221.667969 290.75 223.210938 C 290.515625 224.75 290.246094 226.285156 289.9375 227.816406 C 289.632812 229.34375 289.292969 230.867188 288.917969 232.378906 C 288.539062 233.894531 288.128906 235.398438 287.6875 236.894531 C 287.242188 238.386719 286.761719 239.871094 286.25 241.34375 C 285.738281 242.816406 285.191406 244.277344 284.613281 245.726562 C 284.03125 247.171875 283.417969 248.605469 282.773438 250.027344 C 282.128906 251.445312 281.449219 252.851562 280.742188 254.238281 C 280.03125 255.628906 279.289062 257 278.519531 258.355469 C 277.746094 259.710938 276.941406 261.046875 276.109375 262.363281 C 275.273438 263.679688 274.410156 264.980469 273.515625 266.257812 C 272.625 267.535156 271.699219 268.792969 270.75 270.027344 C 269.796875 271.265625 268.820312 272.476562 267.8125 273.667969 C 266.804688 274.859375 265.773438 276.027344 264.710938 277.171875 C 263.652344 278.3125 262.566406 279.433594 261.453125 280.527344 C 260.34375 281.621094 259.207031 282.6875 258.046875 283.730469 C 256.886719 284.773438 255.703125 285.785156 254.496094 286.773438 C 253.289062 287.761719 252.058594 288.71875 250.808594 289.652344 C 249.558594 290.582031 248.285156 291.484375 246.992188 292.355469 C 245.699219 293.230469 244.386719 294.074219 243.058594 294.886719 C 241.726562 295.699219 240.378906 296.480469 239.011719 297.230469 C 237.644531 297.980469 236.261719 298.699219 234.859375 299.386719 C 233.460938 300.074219 232.046875 300.730469 230.617188 301.351562 C 229.1875 301.972656 227.742188 302.5625 226.285156 303.121094 C 224.828125 303.675781 223.359375 304.199219 221.878906 304.6875 C 220.398438 305.175781 218.90625 305.628906 217.40625 306.050781 C 215.902344 306.472656 214.394531 306.855469 212.875 307.207031 C 211.355469 307.558594 209.828125 307.875 208.292969 308.15625 C 206.757812 308.4375 205.21875 308.683594 203.675781 308.894531 C 202.128906 309.105469 200.582031 309.28125 199.027344 309.417969 C 197.472656 309.558594 195.917969 309.664062 194.359375 309.730469 Z M 194.359375 309.726562 " fill-opacity="1" fill-rule="nonzero"/></g></svg>